<svg id="Layer_1" data-name="Layer 1" xmlns="http://www.w3.org/2000/svg" viewBox="0 0 632.13 134.67"><defs><style>.cls-1{fill:#656ba8;}.cls-2{fill:#0a7cc4;}.cls-3{fill:#dee9ff;}.cls-4{fill:#fff;}.cls-5{fill:#ccebff;}</style></defs><title>logo.svg</title>
    <style>
        text{
        font-size: 171%;
        font-family: Oswald, sans-serif;
        fill: #656ba8;
        }
    </style>
    <text y="110" x="215" textLength="305">Світ настільних ігор</text>
<path class="cls-2" d="M230.61,24.21v40H218.47V1.77h9.41l32.55,41V1.86h12.14V64.24h-9.85Z"/><path class="cls-2" d="M303.63,65.12a17.48,17.48,0,0,1-6.25-1.1,15,15,0,0,1-5-3.08,14.35,14.35,0,0,1-3.3-4.62,14,14,0,0,1-1.19-5.81,12.79,12.79,0,0,1,1.45-6,13.81,13.81,0,0,1,4-4.71,20.07,20.07,0,0,1,6.2-3,27.06,27.06,0,0,1,7.92-1.1,34.12,34.12,0,0,1,6,.53,24.64,24.64,0,0,1,5.23,1.5V35q0-4.57-2.6-7t-7.7-2.46a20.38,20.38,0,0,0-7.21,1.32A33.49,33.49,0,0,0,294,30.72l-3.61-7.48a34,34,0,0,1,19.18-5.89q9.94,0,15.44,4.88t5.5,14.12V50.69a4.14,4.14,0,0,0,.66,2.64,2.89,2.89,0,0,0,2.16.88v10a26.32,26.32,0,0,1-5.19.62,7.86,7.86,0,0,1-5.15-1.5,6.42,6.42,0,0,1-2.24-4l-.26-2.55A20.4,20.4,0,0,1,313,63,21.48,21.48,0,0,1,303.63,65.12ZM307,56.49a15.36,15.36,0,0,0,5.67-1.06,10.3,10.3,0,0,0,4.18-2.82,4.24,4.24,0,0,0,1.94-3.34V44a29,29,0,0,0-4.58-1.28,24.74,24.74,0,0,0-4.75-.48A12.6,12.6,0,0,0,302,44.31a6.21,6.21,0,0,0-2.9,5.23,6.3,6.3,0,0,0,2.29,5A8.3,8.3,0,0,0,307,56.49Z"/><path class="cls-2" d="M366,65.12a35.67,35.67,0,0,1-11.35-1.85,27.67,27.67,0,0,1-9.5-5.28l4.4-7.39a37.82,37.82,0,0,0,8.23,4.53,22,22,0,0,0,8,1.54,10.06,10.06,0,0,0,5.54-1.32,4.25,4.25,0,0,0,2-3.78A3.78,3.78,0,0,0,370.93,48a51.54,51.54,0,0,0-7.74-2.64q-4.49-1.23-7.65-2.38a19.61,19.61,0,0,1-5.1-2.6A8.85,8.85,0,0,1,347.62,37a10.66,10.66,0,0,1-.88-4.53,14.34,14.34,0,0,1,1.36-6.33,13.8,13.8,0,0,1,3.83-4.8,17.71,17.71,0,0,1,5.76-3,23.42,23.42,0,0,1,7.17-1.06,30.85,30.85,0,0,1,9.72,1.5,23.72,23.72,0,0,1,8.31,4.84l-4.75,7.13a27.62,27.62,0,0,0-6.82-3.87,18.64,18.64,0,0,0-6.55-1.23,9.48,9.48,0,0,0-5,1.23,4.28,4.28,0,0,0-2,4,3.82,3.82,0,0,0,.48,2,4.24,4.24,0,0,0,1.54,1.41,15,15,0,0,0,2.77,1.19q1.72.57,4.27,1.19,4.75,1.23,8.14,2.46a22.22,22.22,0,0,1,5.54,2.82,10,10,0,0,1,3.17,3.65,11.23,11.23,0,0,1,1,5,12.83,12.83,0,0,1-5,10.69Q374.63,65.12,366,65.12Z"/><path class="cls-2" d="M427,61.86A52.6,52.6,0,0,1,421.17,64,24.39,24.39,0,0,1,414,65a16.77,16.77,0,0,1-4.62-.62,10.12,10.12,0,0,1-3.78-2,9.64,9.64,0,0,1-2.6-3.52,12.72,12.72,0,0,1-1-5.23V27.2h-6.07V18.14H402v-15h11.79v15h9.68V27.2h-9.68V49.72a4.19,4.19,0,0,0,1.28,3.48,4.86,4.86,0,0,0,3.12,1,10.83,10.83,0,0,0,3.61-.62q1.76-.61,2.82-1.06Z"/><path class="cls-2" d="M460.32,65.12a25.3,25.3,0,0,1-10.12-1.94,22.69,22.69,0,0,1-7.61-5.23,23.08,23.08,0,0,1-4.79-7.61,24.83,24.83,0,0,1-1.67-9.06,25.08,25.08,0,0,1,1.67-9.15,23.1,23.1,0,0,1,4.79-7.61,22.73,22.73,0,0,1,7.61-5.23,25.31,25.31,0,0,1,10.12-1.94,25,25,0,0,1,10.07,1.94A22.86,22.86,0,0,1,478,24.51a23.14,23.14,0,0,1,4.79,7.61,25.11,25.11,0,0,1,1.67,9.15,24.86,24.86,0,0,1-1.67,9.06A23.49,23.49,0,0,1,478,57.95a22.23,22.23,0,0,1-7.57,5.23A25.31,25.31,0,0,1,460.32,65.12ZM448.26,41.27a16.06,16.06,0,0,0,.92,5.59,13.63,13.63,0,0,0,2.55,4.36,11.38,11.38,0,0,0,3.83,2.86,11.66,11.66,0,0,0,9.5,0,11.42,11.42,0,0,0,3.83-2.86,13.56,13.56,0,0,0,2.55-4.4,16.43,16.43,0,0,0,.92-5.63,16.18,16.18,0,0,0-.92-5.54,13.57,13.57,0,0,0-2.55-4.4,11.45,11.45,0,0,0-3.83-2.86,11.26,11.26,0,0,0-4.75-1,10.83,10.83,0,0,0-4.75,1.06,11.92,11.92,0,0,0-3.83,2.9,13.53,13.53,0,0,0-2.55,4.4A16.17,16.17,0,0,0,448.26,41.27Z"/><path class="cls-2" d="M499.29,0h11.79V49.46a5.81,5.81,0,0,0,1.23,4,4.42,4.42,0,0,0,3.52,1.41,8.81,8.81,0,0,0,2.33-.35,15.74,15.74,0,0,0,2.42-.88l1.58,9a22.75,22.75,0,0,1-5.54,1.76,30.32,30.32,0,0,1-5.72.62q-5.54,0-8.58-2.95t-3-8.4Z"/><path class="cls-2" d="M565.8,64.24l-13.37-20-6.33,6.25V64.24H534.3V0h11.79V39l18.48-20.76h12.58L560,37.76l18.39,26.48Z"/><path class="cls-2" d="M602.4,65.12a17.48,17.48,0,0,1-6.25-1.1,15,15,0,0,1-5-3.08,14.35,14.35,0,0,1-3.3-4.62,14,14,0,0,1-1.19-5.81,12.79,12.79,0,0,1,1.45-6,13.81,13.81,0,0,1,4-4.71,20.07,20.07,0,0,1,6.2-3,27.06,27.06,0,0,1,7.92-1.1,34.12,34.12,0,0,1,6,.53,24.64,24.64,0,0,1,5.23,1.5V35q0-4.57-2.6-7t-7.7-2.46A20.38,20.38,0,0,0,600,26.85a33.49,33.49,0,0,0-7.21,3.87l-3.61-7.48a34,34,0,0,1,19.18-5.89q9.94,0,15.44,4.88t5.5,14.12V50.69a4.14,4.14,0,0,0,.66,2.64,2.89,2.89,0,0,0,2.16.88v10a26.32,26.32,0,0,1-5.19.62,7.86,7.86,0,0,1-5.15-1.5,6.42,6.42,0,0,1-2.24-4l-.26-2.55A20.4,20.4,0,0,1,611.81,63,21.48,21.48,0,0,1,602.4,65.12Zm3.34-8.62a15.36,15.36,0,0,0,5.67-1.06,10.3,10.3,0,0,0,4.18-2.82,4.24,4.24,0,0,0,1.94-3.34V44A29,29,0,0,0,613,42.73a24.74,24.74,0,0,0-4.75-.48,12.6,12.6,0,0,0-7.48,2.07,6.21,6.21,0,0,0-2.9,5.23,6.3,6.3,0,0,0,2.29,5A8.3,8.3,0,0,0,605.74,56.49Z"/><polygon class="cls-3" points="41.98 16.04 41.98 16.78 3.34 25.05 5.12 31.16 41.98 23.42 41.98 120.59 5.23 128.46 6.29 134.64 60.79 123.27 131.91 123.27 105.53 128.35 107.31 134.46 165.51 123.27 165.51 16.04 41.98 16.04"/><rect class="cls-2" x="24.7" y="0.02" width="107.86" height="110.06" rx="1.05" ry="1.05"/><polygon class="cls-4" points="131.5 109.02 123.11 117.42 17.76 117.42 25.95 109.23 131.5 109.02"/><polygon class="cls-4" points="17.76 117.42 17.76 9.02 25.73 1.05 25.73 109.23 22.26 112.8 17.76 117.42"/><path class="cls-2" d="M132.48,108.62a1.05,1.05,0,0,0-1-.65h0l-104.72.2V1.05A1.05,1.05,0,0,0,25,.31l-8,8L.31,25a1.05,1.05,0,0,0-.31.74v4.46s0,0,0,0a1.05,1.05,0,0,0,0,.15,1,1,0,0,0,0,.16v0a1,1,0,0,0,.05.09,1,1,0,0,0,.08.14l.1.11.11.1.14.08.09.05h0a1,1,0,0,0,.36.07H5.59a1.05,1.05,0,0,0,.74-.31L16.71,20.56V112.5L.8,128.4a1.05,1.05,0,0,0-.31.74v4.46s0,0,0,0a1.64,1.64,0,0,0,.06.31s0,0,0,0l.05.09a1,1,0,0,0,.08.14l.1.11.11.1.14.08.08.05h0a1,1,0,0,0,.36.07H6.09a1.05,1.05,0,0,0,.74-.31L22.7,118.48h88.89l-9.94,9.94a1.05,1.05,0,0,0-.31.74v4.46s0,0,0,0a1.64,1.64,0,0,0,.06.31s0,0,0,0l.05.09a1,1,0,0,0,.08.14l.1.11.11.1.14.08.08.05h0a1,1,0,0,0,.36.07h4.54a1.05,1.05,0,0,0,.74-.31l16.17-16.17.06-.09,8.34-8.34A1.05,1.05,0,0,0,132.48,108.62ZM18.81,9.46l5.87-5.87V108.8l-5.87,6ZM122.67,116.37H20.3l6.09-6.09,102.57-.2Z"/><path class="cls-5" d="M119.07,95.1l-5-5a9.62,9.62,0,0,0-13.3-13.3l-7-7H118a.79.79,0,1,0,0-1.58H92.12l0,0V41.73h26.16a.79.79,0,0,0,0-1.58H92.1V14.22a.79.79,0,1,0-1.58,0V40.15H64.13l0,0V14a.79.79,0,0,0-1.58,0V38.55l-6-6A9.63,9.63,0,0,0,42.92,18.95l-5.51-5.51a.79.79,0,0,0-1.12,1.12l5.5,5.5A9.62,9.62,0,0,0,55.37,33.63l6.52,6.52H36.59a.79.79,0,1,0,0,1.58H62.52V68.14H36.37a.79.79,0,0,0,0,1.58H62.52V95.65a.79.79,0,0,0,1.58,0V69.72H90.52V95.88a.79.79,0,1,0,1.58,0V70.35l7.38,7.38a9.62,9.62,0,1,0,13.59,13.59L118,96.21a.79.79,0,1,0,1.12-1.12ZM90.52,41.73V66.54l-5.39-5.39A9.63,9.63,0,0,0,71.58,47.6l-5.87-5.87ZM82.91,61.17A8,8,0,0,1,71.56,49.82ZM72.7,48.73A8,8,0,0,1,84,60ZM49.06,18.31a8,8,0,0,1,6.29,13.07L44,20.07A8,8,0,0,1,49.06,18.31Zm0,16.11a8,8,0,0,1-6.15-13.25L54.26,32.51A8,8,0,0,1,49.06,34.42Zm15,7.94,6.34,6.34A9.62,9.62,0,0,0,84,62.28l5.86,5.86H64.1Zm41.83,34.44a8,8,0,0,1,7,12.1l-11-11A8,8,0,0,1,105.93,76.81Zm0,16.11a8,8,0,0,1-5.34-14.07L111.94,90.2A8,8,0,0,1,105.93,92.92Z"/><path class="cls-5" d="M70,33.58a.79.79,0,0,0,1.12,0l5.69-5.69,5.69,5.69a.79.79,0,1,0,1.12-1.12l-5.69-5.69,5.69-5.69A.79.79,0,1,0,82.51,20l-5.69,5.69L71.12,20A.79.79,0,1,0,70,21.08l5.69,5.69L70,32.47A.79.79,0,0,0,70,33.58Z"/><path class="cls-5" d="M99.23,33.58a.79.79,0,0,0,1.12,0L106,27.89l5.69,5.69a.79.79,0,1,0,1.12-1.12l-5.69-5.69,5.69-5.69A.79.79,0,0,0,111.73,20L106,25.66,100.34,20a.79.79,0,1,0-1.12,1.12l5.69,5.69-5.69,5.69A.79.79,0,0,0,99.23,33.58Z"/><path class="cls-5" d="M57,77.64a.79.79,0,0,0-1.12,0l-5.69,5.69-5.69-5.69a.79.79,0,1,0-1.12,1.12l5.69,5.69-5.69,5.69a.79.79,0,1,0,1.12,1.12l5.69-5.69,5.69,5.69A.79.79,0,0,0,57,90.15l-5.69-5.69L57,78.76A.79.79,0,0,0,57,77.64Z"/></svg>