<?xml version='1.0' encoding='utf-8'?>
<svg xmlns="http://www.w3.org/2000/svg" enable-background="new 0 0 500 500" version="1.1" viewBox="0 0 500 500">
	<rect width="500" height="500" fill="#808080"/>
		<path d="m232.7 236.7c0.1 0 0.1 0 0 0 0.1 0 0.1 0 0 0 0.1 0 0.1 0 0 0 0.1 0 0 0 0 0z"/>
		<path d="m269.4 213.5c-2.6 0.4-5.1 1-7.4 2.2-2.3 1.3-4.7 2.4-7.1 3.6-0.2 0.1-0.4 0.1-0.6 0.1 0-0.2 0-0.4 0.1-0.6 0.4-1 0.8-1.9 1.2-2.9 0.8-1.9 1.7-3.8 2.5-5.7 1.2-2.9 1.7-6 1.6-9.2-0.1-2.5-0.1-5-0.2-7.5-0.1-3.3-0.9-6.4-2.1-9.5-0.4-1.1-0.8-2.2-1.3-3.3-1.2-3-2.5-6-3.8-9-0.3-0.6-0.8-1.2-1.3-1.7-0.8-0.6-1.5-1.2-1.8-2.2-0.4-1-1.4-1.2-2.3-0.6-0.7 0.4-1.5 1-2.3 1-1.5 0-2.6 0.7-3.7 1.4-1.9 1.3-3.7 2.6-5.5 3.8-2.5 1.6-5.1 3.1-6.8 5.7-0.1 0.2-0.6 0.4-0.7 0.3-1.4-0.6-2.5 0.1-3.6 0.6-1.4 0.6-1.7 0.5-2.1-0.9-0.1-0.2 0-0.3-0.1-0.5-0.6-1.7-1.2-3.3-1.8-5-0.5-1.2-0.9-1.3-2.1-0.8-3 1.2-5.7 2.9-7.8 5.3-0.7 0.8-1.1 1.2-2 0.4-0.1-0.1-0.4-0.1-0.6-0.2-1.6-0.7-3.3-1.4-4.4-2.9-0.4-0.5-0.9-0.9-1.4-1.3-1.7-1.5-3.8-2.4-5.9-3.2-1.4-0.5-2.7-1.2-4.2-1.5-2.1-0.5-4.2-1-6.2-1.9l-2.1-0.9c-0.7-0.2-1.4-0.3-1.9 0.4-1.7 2.2-3.4 4.4-5.2 6.6-0.4 0.5-0.8 0.9-1 1.4-0.7 1.6-1.7 2.8-2.8 4-1.7 1.7-2.9 3.9-3.5 6.1-0.6 2-0.7 4.1-0.6 6.2 0.1 2.9 0.6 5.7 0.5 8.6 0 1.2 0.1 2.4 0.3 3.5 0.5 3.2 1.3 6.4 2.7 9.3 0.8 1.7 1.3 3.5 1.8 5.2 0.7 2.5 1.6 4.8 3.3 6.8 0.8 0.9 1.3 2 1.7 3.1 1.6 4.1 4.1 7.3 8 9.5 0.6 0.3 1.2 0.9 1.4 1.6 1.4 3.4 2.8 6.9 4.6 10.2 0.1 0.2 0.1 0.4 0.1 0.6l-0.6-0.3c-2.3-2.4-5.1-4.2-8.2-5.5-2.4-1-4.7-2-7.1-3.1-2.5-1.2-5-2.6-7.5-3.7-2.8-1.2-5.7-1.5-8.7-1.1-1.9 0.3-3.8 0.8-5.6 0.8-3.8 0-7.4 0.6-11 1.5-4.9 1.2-9.8 2.8-14.2 5.4-0.7 0.4-1.3 0.9-2 1.4-0.2 0.2-0.2 0.5-0.3 0.8 0.3 0.1 0.6 0.3 0.8 0.2 0.8-0.3 1 0.7 1.7 0.6 0 1.3 1.2 1.2 2 1.5 3.9 1.5 7.7 3 11.6 4.3 3.6 1.2 7.3 2.1 10.9 3.2 2.8 0.9 5.5 2.1 8.5 2.5 2.2 0.3 4.4 0.9 6.6 1.3 3.8 0.7 7.6 1.4 11.4 2 3.7 0.6 7.4 1.1 11.1 1.6 2.4 0.3 4.9 0.5 7.3 0.8 1.2 0.1 2.4 0.4 3.6 0.5 0.6 0 1.4-0.2 1.2-1-0.2-1.2 0.3-0.6 0.7-0.4 1.2 0.7 2.4 1.6 3.9 1.8 0.3 0 0.6 0.5 0.7 0.8 0.8 1.4 1.6 2.8 2.3 4.2 0.3 0.7 0.5 1.4 0.8 2.1s0.5 1.5 0.8 2.2h0.8c0.1-0.4 0.3-0.8 0.3-1.2-0.2-1.6-0.6-3.2-1.6-4.5-0.7-0.9-1.3-1.8-2-2.6-0.6-0.8-0.6-0.9 0.3-1 1.2-0.2 2.4-0.2 3.7-0.4 0.9-0.1 1.4-0.6 1.1-1.2-0.3-0.7 0-1.2 0.3-1.7s0.6-1 1-1.5c1.8-2.1 3.3-4.4 4.3-7 0.3-0.7 0.8-1.3 1.1-2 0.4-0.8 0.7-1.5 0.9-2.3 0.4-1.4 0.5-2.9 1.6-3.9 2-1.9 3.9-3.9 6.1-5.6 2.5-1.9 4.8-3.8 7.1-6 2.2-2.1 4.6-4 6.9-6 0 0 0.1 0 0.1-0.1l6.9-4.8c1.2-0.8 2.3-1.7 3.6-2.4 2.6-1.4 5.3-2.8 8-4 2.6-1.2 5.4-1.6 8.3-1.5 0.6 0 0.9 0.1 0.6 0.8-0.3 0.6-0.5 1.2-0.6 1.8-0.4 2.1-0.8 4.1-1.2 6.2-0.7 3.3-1.6 6.7-2.4 10-0.6 2.5-1.4 4.9-3.4 6.5-2.7 2.2-5.6 4.2-8.5 6.2-3.3 2.2-6.8 4.2-10 6.5-3.6 2.5-7.2 4.8-11.5 6.1-5.7 1.8-11.4 3.4-17.5 3.4-0.5 0-1.2 0-1.2 0.7-0.1 0.7 0.5 0.9 1.1 0.9 2.4-0.1 4.8-0.1 7.2-0.5 4.7-0.7 9.1-2.5 13.6-3.9 2.3-0.7 4.3-1.9 6.3-3.3 1.7-1.2 3.3-2.3 5-3.4 4.9-3.2 10-6.2 14.7-9.8 2.8-2.1 4.8-4.7 5.6-8.2l1.8-7.8c0.5-2.4 0.8-4.7 1.4-7.1 0.4-1.8 1-3.5 1.5-5.3v-1.3c-0.6-0.1-1.2-0.2-1.9-0.2-1.3 0.5-2.5 0.6-3.7 0.8zm-39.6-32.6c1.2-2.2 3.1-3.5 5.1-4.9 2.3-1.6 4.6-3.3 6.9-5 0.9-0.7 1.9-1.2 3.1-1.2 0.7 0 1.4-0.4 2.1-0.7 0.3-0.1 0.5-0.3 0.8-0.4 0.1 0.3 0.1 0.6 0.2 0.9h-0.2c0 3 0.1 6-0.2 8.9-0.3 3-0.9 6-1.5 9-0.5 2.3-0.6 4.5-0.5 6.8 0.1 2.1-0.6 4-1.1 6 0 0.1-0.2 0.2-0.3 0.4-0.1-0.1-0.1-0.3-0.2-0.4-0.1-0.8-0.2-1.6-0.4-2.4-0.3-1.2-0.7-2.4-1.1-3.6-0.7-2-0.8-4.2-1.7-6.2-1-2.1-2.1-4-3.6-5.8-0.8-1-2.1-1.1-3.3-1.1s-2.3 0.4-3.5 0.5c-0.3 0-0.6 0-0.8 0.1 0-0.4 0-0.7 0.2-0.9zm1 1.9c0.8-0.3 1.7-0.4 2.5-0.6 1.6 0 2.7 0.6 3.5 1.9 1.3 2.2 2.6 4.4 3.2 6.9 0.5 2.2 1.1 4.3 1.6 6.5 0.2 0.9 0.1 1.9 0.3 2.8 0.2 1.2 0.6 2.4 0.9 3.7 0.1 0.3 0.1 0.7 0 1-1.1 3.5-2.2 7-3.4 10.4-0.6 1.7-1.4 3.3-2.1 4.9-0.1 0.1-0.2 0.3-0.3 0.4-0.1-0.2-0.2-0.3-0.3-0.5-0.6-2.1-1-4.3-1.7-6.3-0.7-2.1-1.6-4.2-2.6-6.2-1.1-2.2-2.3-4.4-3.7-6.5-1.7-2.6-4-4.7-6.3-6.8-1.2-1-2.3-2.1-3.5-3.2-0.5-0.4-0.5-0.7 0-1.1 0.8-0.7 1.6-1.4 2.5-2 1.5-1 2.9-2 4.5-2.9 1.6-1 3.2-1.7 4.9-2.4zm-7-1.2c0.7-0.2 1.5-0.3 2.1-0.4 0.7 0.3 1.5-0.3 1.9 0.6 0.2 0.5 0.3 0.8-0.3 1-0.5 0.1-0.9 0.4-1.4 0.6-1.1 0.5-2.5-0.2-2.6-1.4-0.1-0.1 0.1-0.4 0.3-0.4zm-4-5.5c0.1 0.1 0.1 0.3 0.2 0.4 0.7 1.8 1.4 3.7 2.1 5.5 0.1 0.4 0.3 0.7 0.5 1 0.3 0.5 1 1.1 0.8 1.6-0.1 0.5-0.9 0.8-1.4 1.2-0.9 0.7-1.7 1.4-2.6 2.1-0.5 0.5-0.7 0.3-0.7-0.4v-2.7c-0.5-2.9 0.4-5.6 0.8-8.4l0.3-0.3zm-10.1 6c1-2.4 2.8-4 4.8-5.4 1-0.6 1.9-1.3 2.9-1.9 0.4-0.3 0.9-0.4 1.4-0.5 0.1 0 0.3 0.1 0.6 0.3-1.1 0.5-0.9 1.3-1.1 2.1-0.5 2.6-1.1 5.3-1 8 0.1 1.4-0.1 2.7-0.1 4.1 0 0.2-0.1 0.3-0.1 0.5-0.2-0.1-0.4-0.1-0.5-0.3-1.1-1-2.1-1.9-3.2-2.9s-2.3-1.4-3.7-1.3h-0.8c-0.3 0-0.7-0.1-1-0.2 0.2-0.3 0.3-0.5 0.5-0.8 0.5-0.5 1-1 1.3-1.7zm-21.2 54.3c-1.9-0.7-3.2-2.3-4.8-3.5-0.4-0.4-0.7-1-1-1.5-1.1-2.1-2.3-4.2-3.4-6.2-0.3-0.6-0.8-1.1-1.2-1.6-0.9-1.1-1.6-2.3-2-3.7-0.8-3-2-5.8-3.3-8.6-2-4.1-2.8-8.5-2.4-13.1-0.2-1.8-0.5-3.5-0.6-5.3 0-1.7 0.2-3.4 0.4-5 0.4-3.1 2-5.6 3.9-8 0.6-0.8 1.2-1.7 1.7-2.5 1.3-2 2.6-4.1 4-6 0.7-1 1.5-1.9 2.3-2.8 0.2-0.2 0.7-0.3 1-0.2 0.8 0.3 1.5 0.7 2.3 1.1 1.6 1 3.4 1.4 5.2 1.8 1.8 0.5 3.6 1.3 5.4 1.9 1.9 0.6 3.6 1.5 5.1 2.8 0.4 0.3 0.8 0.5 1.1 0.9 1.6 1.9 3.7 2.9 6.1 3.3 0.4 0.1 0.5 0.2 0.3 0.6-0.3 0.6-0.7 1.2-1 1.7-0.2 0.4-0.4 0.8-0.5 1.3-0.1 0.2-0.1 0.3-0.1 0.5-0.1-0.1-0.3-0.1-0.4-0.2-0.2-0.2-0.4-0.5-0.5-0.7-1.7-2.7-4.1-3.7-7.2-3.3-0.6 0.1-1.1 0.5-1.6 0.9-0.4 0.3-0.8 0.5-1.4 0.4-1.5-0.3-3-0.2-4.4 0.7-1 0.6-2.1 1-3.2 1.4-3.8 1.4-6.2 4-7.2 7.9-0.7 2.5-1.5 5-1.9 7.6-0.6 3.9-1.7 7.8-0.9 11.7 0.2 1.3 0.9 2.5 1.3 3.8 0.6 1.7 1.1 3.4 1.7 5 0.4 1 0.8 2 1.3 3 1 2 2.3 3.9 3.2 5.9 1.2 2.5 2.3 5 3.4 7.5 0.1 0.2 0.1 0.5 0.2 0.8-0.4-0.1-0.6-0.2-0.9-0.3zm11.6 26.3c-2.9-0.8-5.9-0.6-8.8-1-4.4-0.6-8.7-1.4-13-2.1l-6-0.9c-2.5-0.4-5-0.9-7.5-1.4-1.9-0.4-3.9-0.7-5.8-1.3-4-1.2-8-2.5-12-3.8-4.4-1.4-8.7-2.9-13.1-4.4-0.7-0.2-1.5-0.4-2.2-0.6-0.1 0-0.3-0.1-0.4-0.1 0.1-0.1 0.2-0.3 0.4-0.3 1.3-0.2 2.6-0.5 3.9-0.6 1.7-0.1 3.4 0 5.1 0v0.1c2.4-0.1 4.8-0.2 7.1-0.3 2.8-0.1 5.2 0.9 7.7 1.9 2.5 1.1 5 1.7 7.6 2.1 1.1 0.2 2.1 0.6 3.2 0.8 3.2 0.6 6.5 1.1 9.7 1.8 1.7 0.3 3.3 0.8 4.9 1.5 3.4 1.6 7 2.9 10.7 3.8 1.2 0.3 2.4 0.8 3.6 1.3 0.8 0.3 1.5 0.9 2.3 1.4 0.9 0.6 1.8 1.2 2.7 1.9 0.1 0.1 0.2 0.2 0.2 0.3 0-0.1-0.2-0.1-0.3-0.1zm0.2-2.7c-0.5-0.3-0.9-0.7-1.5-1-1.2-0.7-2.4-1.4-3.7-1.9-4.4-1.5-9-2.7-13.3-4.4-3.4-1.3-6.9-1.8-10.4-2.5-4-0.8-8-1.4-11.9-2.4-1.9-0.4-3.7-1.4-5.6-2.1-2.5-1-5.1-1.3-7.8-1-2.4 0.3-4.9 0.1-7.4 0.1-1.3 0-2.6 0.2-3.9 0.2-0.4 0-0.9-0.1-1.3-0.1 0.3-0.2 0.7-0.5 1.1-0.6 1.6-0.6 3.3-1 4.9-1.6 3.3-1.2 6.6-1.9 10-2.5 1.2-0.2 2.5-0.4 3.8-0.4 2.9-0.1 5.8-0.4 8.7-1.1 2.3-0.5 4.6-0.2 6.7 0.7 5.8 2.6 11.6 5.3 17.4 8 2.3 1 4 2.8 6 4.3 0.3 0.3 0.6 0.7 1 0.8 2.7 1 4.2 3.3 5.9 5.4 0.5 0.7 1 1.4 1.5 2 0 0.1 0.1 0.2 0.1 0.2-0.2-0.1-0.2-0.1-0.3-0.1zm0.2-3.1c-0.1 0-0.2-0.1-0.2-0.1l-3-3.6c-0.4-0.5-0.9-1-1.3-1.5-1.8-2.1-2.8-4.6-4-7-0.6-1.1-1-2.2-1.5-3.3-0.1-0.1 0-0.3-0.1-0.5 0.6 0 1.2 0 1.7 0.2 0.3 0.1 0.5 0.4 0.7 0.7 0.9 1.8 1.6 3.7 2.6 5.5 1.6 2.9 3.3 5.8 4.9 8.7 0.1 0.3 0.3 0.5 0.4 0.7-0.2 0.1-0.2 0.1-0.2 0.2zm51.5-36.8c0.6 1-0.1 1.3-0.7 1.8l-7.2 5.1c-0.1 0.1-0.3 0.2-0.4 0.3-1.5 2.1-3.9 3.3-5.7 5-1.4 1.3-2.9 2.6-4.3 3.9-0.2 0.2-0.5 0.3-0.8 0.4-0.2 0.3-0.4 0.6-0.7 0.8-2.2 1.8-4.3 3.7-6.5 5.5-1.8 1.4-2.8 3.3-3.2 5.5-0.2 1-0.5 1.9-1.2 2.7-0.3 0.4-0.6 0.9-0.8 1.4-0.8 2.1-2.2 3.8-3.4 5.7-0.8 1.3-1.5 2.7-2.3 4.1-0.2 0.3-0.5 0.8-0.8 0.8-2.8 0.5-5.5 0.5-7.9-1.2-0.6-0.4-1.2-1-1.6-1.6-2.4-4.3-4.7-8.6-7.1-12.9l-0.3-0.6c-1.2-4.1-3.8-7.4-5.8-11.1-1.4-2.5-2.4-5.1-3.7-7.6-1.1-2.2-2.4-4.3-3.6-6.6-0.8-1.5-1.4-3-2-4.5-0.7-1.7-1.4-3.4-2-5.2-0.3-0.7-0.4-1.5-0.5-2.2-0.2-3.9 0.7-7.7 1.2-11.5 0.4-3 1.3-5.7 2.3-8.5 0.7-1.9 2-3.3 3.8-4.1 1.2-0.6 2.4-1 3.6-1.5 0.8-0.3 1.7-0.6 2.5-1 1.1-0.6 2.2-0.6 3.3-0.3 0.8 0.2 1.3 0.2 1.8-0.6 0.8-1.1 2.3-1.5 3.7-1 1.3 0.6 2.7 1.3 3.2 2.7 0.6 1.7 2 2 3.5 2.3h0.5c2.4-0.5 4.1 0.8 5.6 2.5 1.4 1.5 2.8 2.9 4.2 4.2 2.2 2.1 4.5 4 6.6 6.2 1.5 1.6 2.7 3.4 3.8 5.2 1.4 2.4 2.7 4.9 3.7 7.5s1.6 5.4 2.3 8.1c0.3 0.9 0.5 1.9 0.7 2.8 0.1 0.3 0.1 0.6 0 0.8-1.1 3.3-2.2 6.6-3.3 10-0.2 0.6-0.4 1.3-0.6 1.9-0.2 0.8 0.1 1.1 0.9 1 0.7-2.3 1.5-4.6 2.2-6.9 0.5-1.5 0.9-3 1.5-4.4 1-2.4 2.1-4.8 3.1-7.2 0.5-1.2 1.1-2.5 1.6-3.7 1.3-3.3 2.6-6.7 3.8-10.1 1.1-3.1 1.9-6.2 1.9-9.5 0-3.2 0.7-6.4 1.5-9.5 0.7-2.8 0.8-5.7 0.9-8.6 0.1-1.6 0-3.2 0.1-4.8 0-0.2 0.1-0.4 0.2-0.7 0.2 0.1 0.5 0.2 0.6 0.4 0.2 0.2 0.4 0.5 0.5 0.8 1.3 3 2.5 6 3.8 9 0.4 0.9 0.7 1.9 1 2.8 1.5 4.1 2.5 8.2 2.3 12.6-0.1 2.9 0.1 5.8-0.5 8.8-0.5 2.5-1.5 4.8-2.5 7.2-1 2.2-1.8 4.4-2.7 6.5-0.1 0.5-0.2 0.9-0.1 1.1z"/>
		<path d="m220.5 266.5c-0.1-0.4-0.5-1.2-0.7-1.1-0.7 0.1-0.5 0.8-0.6 1.3v0.1h-0.1c0.3 1.2 0.6 2.4 0.9 3.5 0.2 0.6 0.5 1.3 1.1 1.1 0.8-0.2 0.4-1.1 0.3-1.6-0.2-1.1-0.6-2.2-0.9-3.3z"/>
	<g fill="#fff">
		<path d="m174.9 56.8c-2.6 0.4-5.1 1-7.4 2.2-2.3 1.3-4.7 2.4-7.1 3.6-0.2 0.1-0.4 0.1-0.6 0.1 0-0.2 0-0.4 0.1-0.6 0.4-1 0.8-1.9 1.2-2.9 0.8-1.9 1.7-3.8 2.5-5.7 1.2-2.9 1.7-6 1.6-9.2-0.1-2.5-0.1-5-0.2-7.5-0.1-3.3-0.9-6.4-2.1-9.5-0.4-1.1-0.8-2.2-1.3-3.3-1.2-3-2.5-6-3.8-9-0.3-0.6-0.8-1.2-1.3-1.7-0.8-0.6-1.5-1.2-1.8-2.2-0.4-1-1.4-1.2-2.3-0.6-0.7 0.4-1.5 1-2.3 1-1.5 0-2.6 0.7-3.7 1.4-1.9 1.3-3.7 2.6-5.5 3.8-2.5 1.6-5.1 3.1-6.8 5.7-0.1 0.2-0.6 0.4-0.7 0.3-1.4-0.6-2.5 0.1-3.6 0.6-1.4 0.6-1.7 0.5-2.1-0.9-0.1-0.2 0-0.3-0.1-0.5-0.6-1.7-1.2-3.3-1.8-5-0.5-1.2-0.9-1.3-2.1-0.8-3 1.2-5.7 2.9-7.8 5.3-0.7 0.8-1.1 1.2-2 0.4-0.1-0.1-0.4-0.1-0.6-0.2-1.6-0.7-3.3-1.4-4.4-2.9-0.4-0.5-0.9-0.9-1.4-1.3-1.7-1.5-3.8-2.4-5.9-3.2-1.4-0.5-2.7-1.2-4.2-1.5-2.1-0.5-4.2-1-6.2-1.9l-2.1-0.9c-0.7-0.2-1.4-0.3-1.9 0.4-1.7 2.2-3.4 4.4-5.2 6.6-0.4 0.5-0.8 0.9-1 1.4-0.7 1.6-1.7 2.8-2.8 4-1.7 1.7-2.9 3.9-3.5 6.1-0.6 2-0.7 4.1-0.6 6.2 0.1 2.9 0.6 5.7 0.5 8.6 0 1.2 0.1 2.4 0.3 3.5 0.5 3.2 1.3 6.4 2.7 9.3 0.8 1.7 1.3 3.5 1.8 5.2 0.7 2.5 1.6 4.8 3.3 6.8 0.8 0.9 1.3 2 1.7 3.1 1.6 4.1 4.1 7.3 8 9.5 0.6 0.3 1.2 0.9 1.4 1.6 1.4 3.4 2.8 6.9 4.6 10.2 0.1 0.2 0.1 0.4 0.1 0.6l-0.6-0.3c-2.3-2.4-5.1-4.2-8.2-5.5-2.4-1-4.7-2-7.1-3.1-2.5-1.2-5-2.6-7.5-3.7-2.8-1.2-5.7-1.5-8.7-1.1-1.9 0.3-3.8 0.8-5.6 0.8-3.8 0-7.4 0.6-11 1.5-4.9 1.2-9.8 2.8-14.2 5.4-0.7 0.4-1.3 0.9-2 1.4-0.2 0.2-0.2 0.5-0.3 0.8 0.3 0.1 0.6 0.3 0.8 0.2 0.8-0.3 1 0.7 1.7 0.6 0 1.3 1.2 1.2 2 1.5 3.9 1.5 7.7 3 11.6 4.3 3.6 1.2 7.3 2.1 10.9 3.2 2.8 0.9 5.5 2.1 8.5 2.5 2.2 0.3 4.4 0.9 6.6 1.3 3.8 0.7 7.6 1.4 11.4 2 3.7 0.6 7.4 1.1 11.1 1.6 2.4 0.3 4.9 0.5 7.3 0.8 1.2 0.1 2.4 0.4 3.6 0.5 0.6 0 1.4-0.2 1.2-1-0.2-1.2 0.3-0.6 0.7-0.4 1.2 0.7 2.4 1.6 3.9 1.8 0.3 0 0.6 0.5 0.7 0.8 0.8 1.4 1.6 2.8 2.3 4.2 0.3 0.7 0.5 1.4 0.8 2.1s0.5 1.5 0.8 2.2h0.8c0.1-0.4 0.3-0.8 0.3-1.2-0.2-1.6-0.6-3.2-1.6-4.5-0.7-0.9-1.3-1.8-2-2.6-0.6-0.8-0.6-0.9 0.3-1 1.2-0.2 2.4-0.2 3.7-0.4 0.9-0.1 1.4-0.6 1.1-1.2-0.3-0.7 0-1.2 0.3-1.7s0.6-1 1-1.5c1.8-2.1 3.3-4.4 4.3-7 0.3-0.7 0.8-1.3 1.1-2 0.4-0.8 0.7-1.5 0.9-2.3 0.4-1.4 0.5-2.9 1.6-3.9 2-1.9 3.9-3.9 6.1-5.6 2.5-1.9 4.8-3.8 7.1-6 2.2-2.1 4.6-4 6.9-6 0 0 0.1 0 0.1-0.1l6.9-4.8c1.2-0.8 2.3-1.7 3.6-2.4 2.6-1.4 5.3-2.8 8-4 2.6-1.2 5.4-1.6 8.3-1.5 0.6 0 0.9 0.1 0.6 0.8-0.3 0.6-0.5 1.2-0.6 1.8-0.4 2.1-0.8 4.1-1.2 6.2-0.7 3.3-1.6 6.7-2.4 10-0.6 2.5-1.4 4.9-3.4 6.5-2.7 2.2-5.6 4.2-8.5 6.2-3.3 2.2-6.8 4.2-10 6.5-3.6 2.5-7.2 4.8-11.5 6.1-5.7 1.8-11.4 3.4-17.5 3.4-0.5 0-1.2 0-1.2 0.7-0.1 0.7 0.5 0.9 1.1 0.9 2.4-0.1 4.8-0.1 7.2-0.5 4.7-0.7 9.1-2.5 13.6-3.9 2.3-0.7 4.3-1.9 6.3-3.3 1.7-1.2 3.3-2.3 5-3.4 4.9-3.2 10-6.2 14.7-9.8 2.8-2.1 4.8-4.7 5.6-8.2l1.8-7.8c0.5-2.4 0.8-4.7 1.4-7.1 0.4-1.8 1-3.5 1.5-5.3v-1.3c-0.6-0.1-1.2-0.2-1.9-0.2-1.3 0.6-2.5 0.6-3.7 0.8zm-39.6-32.6c1.2-2.2 3.1-3.5 5.1-4.9 2.3-1.6 4.6-3.3 6.9-5 0.9-0.7 1.9-1.2 3.1-1.2 0.7 0 1.4-0.4 2.1-0.7 0.3-0.1 0.5-0.3 0.8-0.4 0.1 0.3 0.1 0.6 0.2 0.9h-0.2c0 3 0.1 6-0.2 8.9-0.3 3-0.9 6-1.5 9-0.5 2.3-0.6 4.5-0.5 6.8 0.1 2.1-0.6 4-1.1 6 0 0.1-0.2 0.2-0.3 0.4-0.1-0.1-0.1-0.3-0.2-0.4-0.1-0.8-0.2-1.6-0.4-2.4-0.3-1.2-0.7-2.4-1.1-3.6-0.7-2-0.8-4.2-1.7-6.2-1-2.1-2.1-4-3.6-5.8-0.8-1-2.1-1.1-3.3-1.1s-2.3 0.4-3.5 0.5c-0.3 0-0.6 0-0.8 0.1 0-0.4 0.1-0.7 0.2-0.9zm1 1.9c0.8-0.3 1.7-0.4 2.5-0.6 1.6 0 2.7 0.6 3.5 1.9 1.3 2.2 2.6 4.4 3.2 6.9 0.5 2.2 1.1 4.3 1.6 6.5 0.2 0.9 0.1 1.9 0.3 2.8 0.2 1.2 0.6 2.4 0.9 3.7 0.1 0.3 0.1 0.7 0 1-1.1 3.5-2.2 7-3.4 10.4-0.6 1.7-1.4 3.3-2.1 4.9-0.1 0.1-0.2 0.3-0.3 0.4-0.1-0.2-0.2-0.3-0.3-0.5-0.6-2.1-1-4.3-1.7-6.3-0.7-2.1-1.6-4.2-2.6-6.2-1.1-2.2-2.3-4.4-3.7-6.5-1.7-2.6-4-4.7-6.3-6.8-1.2-1-2.3-2.1-3.5-3.2-0.5-0.4-0.5-0.7 0-1.1 0.8-0.7 1.6-1.4 2.5-2 1.5-1 2.9-2 4.5-2.9s3.3-1.7 4.9-2.4zm-7-1.2c0.7-0.2 1.5-0.3 2.1-0.4 0.7 0.3 1.5-0.3 1.9 0.6 0.2 0.5 0.3 0.8-0.3 1-0.5 0.1-0.9 0.4-1.4 0.6-1.1 0.5-2.5-0.2-2.6-1.4-0.1 0 0.2-0.4 0.3-0.4zm-4-5.5c0.1 0.1 0.1 0.3 0.2 0.4 0.7 1.8 1.4 3.7 2.1 5.5 0.1 0.4 0.3 0.7 0.5 1 0.3 0.5 1 1.1 0.8 1.6-0.1 0.5-0.9 0.8-1.4 1.2-0.9 0.7-1.7 1.4-2.6 2.1-0.5 0.5-0.7 0.3-0.7-0.4v-2.7c-0.5-2.9 0.4-5.6 0.8-8.4 0.1-0.1 0.3-0.2 0.3-0.3zm-10.1 6c1-2.4 2.8-4 4.8-5.4 1-0.6 1.9-1.3 2.9-1.9 0.4-0.3 0.9-0.4 1.4-0.5 0.1 0 0.3 0.1 0.6 0.3-1.1 0.5-0.9 1.3-1.1 2.1-0.5 2.6-1.1 5.3-1 8 0.1 1.4-0.1 2.7-0.1 4.1 0 0.2-0.1 0.3-0.1 0.5-0.2-0.1-0.4-0.1-0.5-0.3-1.1-1-2.1-1.9-3.2-2.9s-2.3-1.4-3.7-1.3h-0.8c-0.3 0-0.7-0.1-1-0.2 0.2-0.3 0.3-0.5 0.5-0.8 0.6-0.5 1.1-1 1.3-1.7zm-21.2 54.3c-1.9-0.7-3.2-2.3-4.8-3.5-0.4-0.4-0.7-1-1-1.5-1.1-2.1-2.3-4.2-3.4-6.2-0.3-0.6-0.8-1.1-1.2-1.6-0.9-1.1-1.6-2.3-2-3.7-0.8-3-2-5.8-3.3-8.6-2-4.1-2.8-8.5-2.4-13.1-0.2-1.8-0.5-3.5-0.6-5.3 0-1.7 0.2-3.4 0.4-5 0.4-3.1 2-5.6 3.9-8 0.6-0.8 1.2-1.7 1.7-2.5 1.3-2 2.6-4.1 4-6 0.7-1 1.5-1.9 2.3-2.8 0.2-0.2 0.7-0.3 1-0.2 0.8 0.3 1.5 0.7 2.3 1.1 1.6 1 3.4 1.4 5.2 1.8 1.8 0.5 3.6 1.3 5.4 1.9 1.9 0.6 3.6 1.5 5.1 2.8 0.4 0.3 0.8 0.5 1.1 0.9 1.6 1.9 3.7 2.9 6.1 3.3 0.4 0.1 0.5 0.2 0.3 0.6-0.3 0.6-0.7 1.2-1 1.7-0.2 0.4-0.4 0.8-0.5 1.3-0.1 0.2-0.1 0.3-0.1 0.5-0.1-0.1-0.3-0.1-0.4-0.2-0.2-0.2-0.4-0.5-0.5-0.7-1.7-2.7-4.1-3.7-7.2-3.3-0.6 0.1-1.1 0.5-1.6 0.9-0.4 0.3-0.8 0.5-1.4 0.4-1.5-0.3-3-0.2-4.4 0.7-1 0.6-2.1 1-3.2 1.4-3.8 1.4-6.2 4-7.2 7.9-0.7 2.5-1.5 5-1.9 7.6-0.7 3.9-1.7 7.8-1 11.7 0.2 1.3 0.9 2.5 1.3 3.8 0.6 1.7 1.1 3.4 1.7 5 0.4 1 0.8 2 1.3 3 1 2 2.3 3.9 3.2 5.9 1.2 2.5 2.3 5 3.4 7.5 0.1 0.2 0.1 0.5 0.2 0.8-0.2-0.1-0.5-0.2-0.8-0.3zm11.6 26.3c-2.9-0.8-5.9-0.6-8.8-1-4.4-0.6-8.7-1.4-13-2.1l-6-0.9c-2.5-0.4-5-0.9-7.5-1.4-1.9-0.4-3.9-0.7-5.8-1.3-4-1.2-8-2.5-12-3.8-4.4-1.4-8.7-2.9-13.1-4.4-0.7-0.2-1.5-0.4-2.2-0.6-0.1 0-0.3-0.1-0.4-0.1 0.1-0.1 0.2-0.3 0.4-0.3 1.3-0.2 2.6-0.5 3.9-0.6 1.7-0.1 3.4 0 5.1 0v0.1c2.4-0.1 4.8-0.2 7.1-0.3 2.8-0.1 5.2 0.9 7.7 1.9 2.5 1.1 5 1.7 7.6 2.1 1.1 0.2 2.1 0.6 3.2 0.8 3.2 0.6 6.5 1.1 9.7 1.8 1.7 0.3 3.3 0.8 4.9 1.5 3.4 1.6 7 2.9 10.7 3.8 1.2 0.3 2.4 0.8 3.6 1.3 0.8 0.3 1.5 0.9 2.3 1.4 0.9 0.6 1.8 1.2 2.7 1.9 0.1 0.1 0.2 0.2 0.2 0.3 0-0.1-0.2-0.1-0.3-0.1zm0.2-2.7c-0.5-0.3-0.9-0.7-1.5-1-1.2-0.7-2.4-1.4-3.7-1.9-4.4-1.5-9-2.7-13.3-4.4-3.4-1.3-6.9-1.8-10.4-2.5-4-0.8-8-1.4-11.9-2.4-1.9-0.4-3.7-1.4-5.6-2.1-2.5-1-5.1-1.3-7.8-1-2.4 0.3-4.9 0.1-7.4 0.1-1.3 0-2.6 0.2-3.9 0.2-0.4 0-0.9-0.1-1.3-0.1 0.3-0.2 0.7-0.5 1.1-0.6 1.6-0.6 3.3-1 4.9-1.6 3.3-1.2 6.6-1.9 10-2.5 1.2-0.2 2.5-0.4 3.8-0.4 2.9-0.1 5.8-0.4 8.7-1.1 2.3-0.5 4.6-0.2 6.7 0.7 5.8 2.6 11.6 5.3 17.4 8 2.3 1 4 2.8 6 4.3 0.3 0.3 0.6 0.7 1 0.8 2.7 1 4.2 3.3 5.9 5.4 0.5 0.7 1 1.4 1.5 2 0 0.1 0.1 0.2 0.1 0.2-0.1 0-0.2-0.1-0.3-0.1zm0.2-3.1c-0.1 0-0.2-0.1-0.2-0.1l-3-3.6c-0.4-0.5-0.9-1-1.3-1.5-1.8-2.1-2.8-4.6-4-7-0.6-1.1-1-2.2-1.5-3.3-0.1-0.1 0-0.3-0.1-0.5 0.6 0 1.2 0 1.7 0.2 0.3 0.1 0.5 0.4 0.7 0.7 0.9 1.8 1.6 3.7 2.6 5.5 1.6 2.9 3.3 5.8 4.9 8.7 0.1 0.3 0.3 0.5 0.4 0.7l-0.2 0.2zm51.5-36.8c0.6 1-0.1 1.3-0.7 1.8l-7.2 5.1c-0.1 0.1-0.3 0.2-0.4 0.3-1.5 2.1-3.9 3.3-5.7 5-1.4 1.3-2.9 2.6-4.3 3.9-0.2 0.2-0.5 0.3-0.8 0.4-0.2 0.3-0.4 0.6-0.7 0.8-2.2 1.8-4.3 3.7-6.5 5.5-1.8 1.4-2.8 3.3-3.2 5.5-0.2 1-0.5 1.9-1.2 2.7-0.3 0.4-0.6 0.9-0.8 1.4-0.8 2.1-2.2 3.8-3.4 5.7-0.8 1.3-1.5 2.7-2.3 4.1-0.2 0.3-0.5 0.8-0.8 0.8-2.8 0.5-5.5 0.5-7.9-1.2-0.6-0.4-1.2-1-1.6-1.6-2.4-4.3-4.7-8.6-7.1-12.9l-0.3-0.6c-1.2-4.1-3.8-7.4-5.8-11.1-1.4-2.5-2.4-5.1-3.7-7.6-1.1-2.2-2.4-4.3-3.6-6.6-0.8-1.5-1.4-3-2-4.5-0.7-1.7-1.4-3.4-2-5.2-0.3-0.7-0.4-1.5-0.5-2.2-0.2-3.9 0.7-7.7 1.2-11.5 0.4-3 1.3-5.7 2.3-8.5 0.7-1.9 2-3.3 3.8-4.1 1.2-0.6 2.4-1 3.6-1.5 0.8-0.3 1.7-0.6 2.5-1 1.1-0.6 2.2-0.6 3.3-0.3 0.8 0.2 1.3 0.2 1.8-0.6 0.8-1.1 2.3-1.5 3.7-1 1.3 0.6 2.7 1.3 3.2 2.7 0.6 1.7 2 2 3.5 2.3h0.5c2.4-0.5 4.1 0.8 5.6 2.5 1.4 1.5 2.8 2.9 4.2 4.2 2.2 2.1 4.5 4 6.6 6.2 1.5 1.6 2.7 3.4 3.8 5.2 1.4 2.4 2.7 4.9 3.7 7.5s1.6 5.4 2.3 8.1c0.3 0.9 0.5 1.9 0.7 2.8 0.1 0.3 0.1 0.6 0 0.8-1.1 3.3-2.2 6.6-3.3 10-0.2 0.6-0.4 1.3-0.6 1.9-0.2 0.8 0.1 1.1 0.9 1 0.7-2.3 1.5-4.6 2.2-6.9 0.5-1.5 0.9-3 1.5-4.4 1-2.4 2.1-4.8 3.1-7.2 0.5-1.2 1.1-2.5 1.6-3.7 1.3-3.3 2.6-6.7 3.8-10.1 1.1-3.1 1.9-6.2 1.9-9.5 0-3.2 0.7-6.4 1.5-9.5 0.7-2.8 0.8-5.7 0.9-8.6 0.1-1.6 0-3.2 0.1-4.8 0-0.2 0.1-0.4 0.2-0.7 0.2 0.1 0.5 0.2 0.6 0.4 0.2 0.2 0.4 0.5 0.5 0.8 1.3 3 2.5 6 3.8 9 0.4 0.9 0.7 1.9 1 2.8 1.5 4.1 2.5 8.2 2.3 12.6-0.1 2.9 0.1 5.8-0.5 8.8-0.5 2.5-1.5 4.8-2.5 7.2-1 2.2-1.8 4.4-2.7 6.5-0.1 0.6-0.2 0.9-0.1 1.1z"/>
		<path d="m138.3 80z"/>
		<path d="m126 109.8c-0.1-0.4-0.5-1.2-0.7-1.1-0.7 0.1-0.5 0.8-0.6 1.3v0.1h-0.1c0.3 1.2 0.6 2.4 0.9 3.5 0.2 0.6 0.5 1.3 1.1 1.1 0.8-0.2 0.4-1.1 0.3-1.6-0.2-1-0.5-2.2-0.9-3.3z"/>
	</g>
		<path d="m438.9 109.4c-2.6 0.4-5.1 1-7.4 2.2-2.3 1.3-4.7 2.4-7.1 3.6-0.2 0.1-0.4 0.1-0.6 0.1 0-0.2 0-0.4 0.1-0.6 0.4-1 0.8-1.9 1.2-2.9 0.8-1.9 1.7-3.8 2.5-5.7 1.2-2.9 1.7-6 1.6-9.2-0.1-2.5-0.1-5-0.2-7.5-0.1-3.3-0.9-6.4-2.1-9.5-0.4-1.1-0.8-2.2-1.3-3.3-1.2-3-2.5-6-3.8-9-0.3-0.6-0.8-1.2-1.3-1.7-0.8-0.6-1.5-1.2-1.8-2.2-0.4-1-1.4-1.2-2.3-0.6-0.7 0.4-1.5 1-2.3 1-1.5 0-2.6 0.7-3.7 1.4-1.9 1.3-3.7 2.6-5.5 3.8-2.5 1.6-5.1 3.1-6.8 5.7-0.1 0.2-0.6 0.4-0.7 0.3-1.4-0.6-2.5 0.1-3.6 0.6-1.4 0.6-1.7 0.5-2.1-0.9-0.1-0.2 0-0.3-0.1-0.5-0.6-1.7-1.2-3.3-1.8-5-0.5-1.2-0.9-1.3-2.1-0.8-3 1.2-5.7 2.9-7.8 5.3-0.7 0.8-1.1 1.2-2 0.4-0.1-0.1-0.4-0.1-0.6-0.2-1.6-0.7-3.3-1.4-4.4-2.9-0.4-0.5-0.9-0.9-1.4-1.3-1.7-1.5-3.8-2.4-5.9-3.2-1.4-0.5-2.7-1.2-4.2-1.5-2.1-0.5-4.2-1-6.2-1.9l-2.1-0.9c-0.7-0.2-1.4-0.3-1.9 0.4-1.7 2.2-3.4 4.4-5.2 6.6-0.4 0.5-0.8 0.9-1 1.4-0.7 1.6-1.7 2.8-2.8 4-1.7 1.7-2.9 3.9-3.5 6.1-0.6 2-0.7 4.1-0.6 6.2 0.1 2.9 0.6 5.7 0.5 8.6 0 1.2 0.1 2.4 0.3 3.5 0.5 3.2 1.3 6.4 2.7 9.3 0.8 1.7 1.3 3.5 1.8 5.2 0.7 2.5 1.6 4.8 3.3 6.8 0.8 0.9 1.3 2 1.7 3.1 1.6 4.1 4.1 7.3 8 9.5 0.6 0.3 1.2 0.9 1.4 1.6 1.4 3.4 2.8 6.9 4.6 10.2 0.1 0.2 0.1 0.4 0.1 0.6l-0.6-0.3c-2.3-2.4-5.1-4.2-8.2-5.5-2.4-1-4.7-2-7.1-3.1-2.5-1.2-5-2.6-7.5-3.7-2.8-1.2-5.7-1.5-8.7-1.1-1.9 0.3-3.8 0.8-5.6 0.8-3.8 0-7.4 0.6-11 1.5-4.9 1.2-9.8 2.8-14.2 5.4-0.7 0.4-1.3 0.9-2 1.4-0.2 0.2-0.2 0.5-0.3 0.8 0.3 0.1 0.6 0.3 0.8 0.2 0.8-0.3 1 0.7 1.7 0.6 0 1.3 1.2 1.2 2 1.5 3.9 1.5 7.7 3 11.6 4.3 3.6 1.2 7.3 2.1 10.9 3.2 2.8 0.9 5.5 2.1 8.5 2.5 2.2 0.3 4.4 0.9 6.6 1.3 3.8 0.7 7.6 1.4 11.4 2 3.7 0.6 7.4 1.1 11.1 1.6 2.4 0.3 4.9 0.5 7.3 0.8 1.2 0.1 2.4 0.4 3.6 0.5 0.6 0 1.4-0.2 1.2-1-0.2-1.2 0.3-0.6 0.7-0.4 1.2 0.7 2.4 1.6 3.9 1.8 0.3 0 0.6 0.5 0.7 0.8 0.8 1.4 1.6 2.8 2.3 4.2 0.3 0.7 0.5 1.4 0.8 2.1s0.5 1.5 0.8 2.2h0.8c0.1-0.4 0.3-0.8 0.3-1.2-0.2-1.6-0.6-3.2-1.6-4.5-0.7-0.9-1.3-1.8-2-2.6-0.6-0.8-0.6-0.9 0.3-1 1.2-0.2 2.4-0.2 3.7-0.4 0.9-0.1 1.4-0.6 1.1-1.2-0.3-0.7 0-1.2 0.3-1.7s0.6-1 1-1.5c1.8-2.1 3.3-4.4 4.3-7 0.3-0.7 0.8-1.3 1.1-2 0.4-0.8 0.7-1.5 0.9-2.3 0.4-1.4 0.5-2.9 1.6-3.9 2-1.9 3.9-3.9 6.1-5.6 2.5-1.9 4.8-3.8 7.1-6 2.2-2.1 4.6-4 6.9-6 0 0 0.1 0 0.1-0.1l6.9-4.8c1.2-0.8 2.3-1.7 3.6-2.4 2.6-1.4 5.3-2.8 8-4 2.6-1.2 5.4-1.6 8.3-1.5 0.6 0 0.9 0.1 0.6 0.8-0.3 0.6-0.5 1.2-0.6 1.8-0.4 2.1-0.8 4.1-1.2 6.2-0.7 3.3-1.6 6.7-2.4 10-0.6 2.5-1.4 4.9-3.4 6.5-2.7 2.2-5.6 4.2-8.5 6.2-3.3 2.2-6.8 4.2-10 6.5-3.6 2.5-7.2 4.8-11.5 6.1-5.7 1.8-11.4 3.4-17.5 3.4-0.5 0-1.2 0-1.2 0.7-0.1 0.7 0.5 0.9 1.1 0.9 2.4-0.1 4.8-0.1 7.2-0.5 4.7-0.7 9.1-2.5 13.6-3.9 2.3-0.7 4.3-1.9 6.3-3.3 1.7-1.2 3.3-2.3 5-3.4 4.9-3.2 10-6.2 14.7-9.8 2.8-2.1 4.8-4.7 5.6-8.2l1.8-7.8c0.5-2.4 0.8-4.7 1.4-7.1 0.4-1.8 1-3.5 1.5-5.3v-1.3c-0.6-0.1-1.2-0.2-1.9-0.2-1.3 0.6-2.5 0.6-3.7 0.8zm-39.6-32.6c1.2-2.2 3.1-3.5 5.1-4.9 2.3-1.6 4.6-3.3 6.9-5 0.9-0.7 1.9-1.2 3.1-1.2 0.7 0 1.4-0.4 2.1-0.7 0.3-0.1 0.5-0.3 0.8-0.4 0.1 0.3 0.1 0.6 0.2 0.9h-0.2c0 3 0.1 6-0.2 8.9-0.3 3-0.9 6-1.5 9-0.5 2.3-0.6 4.5-0.5 6.8 0.1 2.1-0.6 4-1.1 6 0 0.1-0.2 0.2-0.3 0.4-0.1-0.1-0.1-0.3-0.2-0.4-0.1-0.8-0.2-1.6-0.4-2.4-0.3-1.2-0.7-2.4-1.1-3.6-0.7-2-0.8-4.2-1.7-6.2-1-2.1-2.1-4-3.6-5.8-0.8-1-2.1-1.1-3.3-1.1s-2.3 0.4-3.5 0.5c-0.3 0-0.6 0-0.8 0.1 0-0.4 0-0.7 0.2-0.9zm1 1.9c0.8-0.3 1.7-0.4 2.5-0.6 1.6 0 2.7 0.6 3.5 1.9 1.3 2.2 2.6 4.4 3.2 6.9 0.5 2.2 1.1 4.3 1.6 6.5 0.2 0.9 0.1 1.9 0.3 2.8 0.2 1.2 0.6 2.4 0.9 3.7 0.1 0.3 0.1 0.7 0 1-1.1 3.5-2.2 7-3.4 10.4-0.6 1.7-1.4 3.3-2.1 4.9-0.1 0.1-0.2 0.3-0.3 0.4-0.1-0.2-0.2-0.3-0.3-0.5-0.6-2.1-1-4.3-1.7-6.3-0.7-2.1-1.6-4.2-2.6-6.2-1.1-2.2-2.3-4.4-3.7-6.5-1.7-2.6-4-4.7-6.3-6.8-1.2-1-2.3-2.1-3.5-3.2-0.5-0.4-0.5-0.7 0-1.1 0.8-0.7 1.6-1.4 2.5-2 1.5-1 2.9-2 4.5-2.9s3.2-1.7 4.9-2.4zm-7-1.2c0.7-0.2 1.5-0.3 2.1-0.4 0.7 0.3 1.5-0.3 1.9 0.6 0.2 0.5 0.3 0.8-0.3 1-0.5 0.1-0.9 0.4-1.4 0.6-1.1 0.5-2.5-0.2-2.6-1.4-0.1 0 0.1-0.3 0.3-0.4zm-4-5.5c0.1 0.1 0.1 0.3 0.2 0.4 0.7 1.8 1.4 3.7 2.1 5.5 0.1 0.4 0.3 0.7 0.5 1 0.3 0.5 1 1.1 0.8 1.6-0.1 0.5-0.9 0.8-1.4 1.2-0.9 0.7-1.7 1.4-2.6 2.1-0.5 0.5-0.7 0.3-0.7-0.4v-2.7c-0.5-2.9 0.4-5.6 0.8-8.4 0.1 0 0.2-0.2 0.3-0.3zm-10.1 6c1-2.4 2.8-4 4.8-5.4 1-0.6 1.9-1.3 2.9-1.9 0.4-0.3 0.9-0.4 1.4-0.5 0.1 0 0.3 0.1 0.6 0.3-1.1 0.5-0.9 1.3-1.1 2.1-0.5 2.6-1.1 5.3-1 8 0.1 1.4-0.1 2.7-0.1 4.1 0 0.2-0.1 0.3-0.1 0.5-0.2-0.1-0.4-0.1-0.5-0.3-1.1-1-2.1-1.9-3.2-2.9s-2.3-1.4-3.7-1.3h-0.8c-0.3 0-0.7-0.1-1-0.2 0.2-0.3 0.3-0.5 0.5-0.8 0.5-0.5 1-1 1.3-1.7zm-21.2 54.3c-1.9-0.7-3.2-2.3-4.8-3.5-0.4-0.4-0.7-1-1-1.5-1.1-2.1-2.3-4.2-3.4-6.2-0.3-0.6-0.8-1.1-1.2-1.6-0.9-1.1-1.6-2.3-2-3.7-0.8-3-2-5.8-3.3-8.6-2-4.1-2.8-8.5-2.4-13.1-0.2-1.8-0.5-3.5-0.6-5.3 0-1.7 0.2-3.4 0.4-5 0.4-3.1 2-5.6 3.9-8 0.6-0.8 1.2-1.7 1.7-2.5 1.3-2 2.6-4.1 4-6 0.7-1 1.5-1.9 2.3-2.8 0.2-0.2 0.7-0.3 1-0.2 0.8 0.3 1.5 0.7 2.3 1.1 1.6 1 3.4 1.4 5.2 1.8 1.8 0.5 3.6 1.3 5.4 1.9 1.9 0.6 3.6 1.5 5.1 2.8 0.4 0.3 0.8 0.5 1.1 0.9 1.6 1.9 3.7 2.9 6.1 3.3 0.4 0.1 0.5 0.2 0.3 0.6-0.3 0.6-0.7 1.2-1 1.7-0.2 0.4-0.4 0.8-0.5 1.3-0.1 0.2-0.1 0.3-0.1 0.5-0.1-0.1-0.3-0.1-0.4-0.2-0.2-0.2-0.4-0.5-0.5-0.7-1.7-2.7-4.1-3.7-7.2-3.3-0.6 0.1-1.1 0.5-1.6 0.9-0.4 0.3-0.8 0.5-1.4 0.4-1.5-0.3-3-0.2-4.4 0.7-1 0.6-2.1 1-3.2 1.4-3.8 1.4-6.2 4-7.2 7.9-0.7 2.5-1.5 5-1.9 7.6-0.6 3.9-1.7 7.8-0.9 11.7 0.2 1.3 0.9 2.5 1.3 3.8 0.6 1.7 1.1 3.4 1.7 5 0.4 1 0.8 2 1.3 3 1 2 2.3 3.9 3.2 5.9 1.2 2.5 2.3 5 3.4 7.5 0.1 0.2 0.1 0.5 0.2 0.8-0.4-0.1-0.6-0.1-0.9-0.3zm11.6 26.3c-2.9-0.8-5.9-0.6-8.8-1-4.4-0.6-8.7-1.4-13-2.1l-6-0.9c-2.5-0.4-5-0.9-7.5-1.4-1.9-0.4-3.9-0.7-5.8-1.3-4-1.2-8-2.5-12-3.8-4.4-1.4-8.7-2.9-13.1-4.4-0.7-0.2-1.5-0.4-2.2-0.6-0.1 0-0.3-0.1-0.4-0.1 0.1-0.1 0.2-0.3 0.4-0.3 1.3-0.2 2.6-0.5 3.9-0.6 1.7-0.1 3.4 0 5.1 0v0.1c2.4-0.1 4.8-0.2 7.1-0.3 2.8-0.1 5.2 0.9 7.7 1.9 2.5 1.1 5 1.7 7.6 2.1 1.1 0.2 2.1 0.6 3.2 0.8 3.2 0.6 6.5 1.1 9.7 1.8 1.7 0.3 3.3 0.8 4.9 1.5 3.4 1.6 7 2.9 10.7 3.8 1.2 0.3 2.4 0.8 3.6 1.3 0.8 0.3 1.5 0.9 2.3 1.4 0.9 0.6 1.8 1.2 2.7 1.9 0.1 0.1 0.2 0.2 0.2 0.3 0-0.1-0.2 0-0.3-0.1zm0.2-2.7c-0.5-0.3-0.9-0.7-1.5-1-1.2-0.7-2.4-1.4-3.7-1.9-4.4-1.5-9-2.7-13.3-4.4-3.4-1.3-6.9-1.8-10.4-2.5-4-0.8-8-1.4-11.9-2.4-1.9-0.4-3.7-1.4-5.6-2.1-2.5-1-5.1-1.3-7.8-1-2.4 0.3-4.9 0.1-7.4 0.1-1.3 0-2.6 0.2-3.9 0.2-0.4 0-0.9-0.1-1.3-0.1 0.3-0.2 0.7-0.5 1.1-0.6 1.6-0.6 3.3-1 4.9-1.6 3.3-1.2 6.6-1.9 10-2.5 1.2-0.2 2.5-0.4 3.8-0.4 2.9-0.1 5.8-0.4 8.7-1.1 2.3-0.5 4.6-0.2 6.7 0.7 5.8 2.6 11.6 5.3 17.4 8 2.3 1 4 2.8 6 4.3 0.3 0.3 0.6 0.7 1 0.8 2.7 1 4.2 3.3 5.9 5.4 0.5 0.7 1 1.4 1.5 2 0 0.1 0.1 0.2 0.1 0.2-0.2 0-0.2-0.1-0.3-0.1zm0.2-3c-0.1 0-0.2-0.1-0.2-0.1l-3-3.6c-0.4-0.5-0.9-1-1.3-1.5-1.8-2.1-2.8-4.6-4-7-0.6-1.1-1-2.2-1.5-3.3-0.1-0.1 0-0.3-0.1-0.5 0.6 0.1 1.2 0 1.7 0.2 0.3 0.1 0.5 0.4 0.7 0.7 0.9 1.8 1.6 3.7 2.6 5.5 1.6 2.9 3.3 5.8 4.9 8.7 0.1 0.3 0.3 0.5 0.4 0.7-0.2 0-0.2 0.1-0.2 0.2zm51.5-36.8c0.6 1-0.1 1.3-0.7 1.8l-7.2 5.1c-0.1 0.1-0.3 0.2-0.4 0.3-1.5 2.1-3.9 3.3-5.7 5-1.4 1.3-2.9 2.6-4.3 3.9-0.2 0.2-0.5 0.3-0.8 0.4-0.2 0.3-0.4 0.6-0.7 0.8-2.2 1.8-4.3 3.7-6.5 5.5-1.8 1.4-2.8 3.3-3.2 5.5-0.2 1-0.5 1.9-1.2 2.7-0.3 0.4-0.6 0.9-0.8 1.4-0.8 2.1-2.2 3.8-3.4 5.7-0.8 1.3-1.5 2.7-2.3 4.1-0.2 0.3-0.5 0.8-0.8 0.8-2.8 0.5-5.5 0.5-7.9-1.2-0.6-0.4-1.2-1-1.6-1.6-2.4-4.3-4.7-8.6-7.1-12.9l-0.3-0.6c-1.2-4.1-3.8-7.4-5.8-11.1-1.4-2.5-2.4-5.1-3.7-7.6-1.1-2.2-2.4-4.3-3.6-6.6-0.8-1.5-1.4-3-2-4.5-0.7-1.7-1.4-3.4-2-5.2-0.3-0.7-0.4-1.5-0.5-2.2-0.2-3.9 0.7-7.7 1.2-11.5 0.4-3 1.3-5.7 2.3-8.5 0.7-1.9 2-3.3 3.8-4.1 1.2-0.6 2.4-1 3.6-1.5 0.8-0.3 1.7-0.6 2.5-1 1.1-0.6 2.2-0.6 3.3-0.3 0.8 0.2 1.3 0.2 1.8-0.6 0.8-1.1 2.3-1.5 3.7-1 1.3 0.6 2.7 1.3 3.2 2.7 0.6 1.7 2 2 3.5 2.3h0.5c2.4-0.5 4.1 0.8 5.6 2.5 1.4 1.5 2.8 2.9 4.2 4.2 2.2 2.1 4.5 4 6.6 6.2 1.5 1.6 2.7 3.4 3.8 5.2 1.4 2.4 2.7 4.9 3.7 7.5s1.6 5.4 2.3 8.1c0.3 0.9 0.5 1.9 0.7 2.8 0.1 0.3 0.1 0.6 0 0.8-1.1 3.3-2.2 6.6-3.3 10-0.2 0.6-0.4 1.3-0.6 1.9-0.2 0.8 0.1 1.1 0.9 1 0.7-2.3 1.5-4.6 2.2-6.9 0.5-1.5 0.9-3 1.5-4.4 1-2.4 2.1-4.8 3.1-7.2 0.5-1.2 1.1-2.5 1.6-3.7 1.3-3.3 2.6-6.7 3.8-10.1 1.1-3.1 1.9-6.2 1.9-9.5 0-3.2 0.7-6.4 1.5-9.5 0.7-2.8 0.8-5.7 0.9-8.6 0.1-1.6 0-3.2 0.1-4.8 0-0.2 0.1-0.4 0.2-0.7 0.2 0.1 0.5 0.2 0.6 0.4 0.2 0.2 0.4 0.5 0.5 0.8 1.3 3 2.5 6 3.8 9 0.4 0.9 0.7 1.9 1 2.8 1.5 4.1 2.5 8.2 2.3 12.6-0.1 2.9 0.1 5.8-0.5 8.8-0.5 2.5-1.5 4.8-2.5 7.2-1 2.2-1.8 4.4-2.7 6.5-0.1 0.5-0.2 0.9-0.1 1.1z"/>
		<path d="m402.2 132.6c0.1 0 0.1 0 0 0 0.1 0 0.1 0 0 0 0.1 0 0.1 0 0 0z"/>
		<path d="m390 162.4c-0.1-0.4-0.5-1.2-0.7-1.1-0.7 0.1-0.5 0.8-0.6 1.3v0.1h-0.1c0.3 1.2 0.6 2.4 0.9 3.5 0.2 0.6 0.5 1.3 1.1 1.1 0.8-0.2 0.4-1.1 0.3-1.6-0.2-1-0.6-2.1-0.9-3.3z"/>
		<path d="m184.7 375.5c-2.6 0.4-5.1 1-7.4 2.2-2.3 1.3-4.7 2.4-7.1 3.6-0.2 0.1-0.4 0.1-0.6 0.1 0-0.2 0-0.4 0.1-0.6 0.4-1 0.8-1.9 1.2-2.9 0.8-1.9 1.7-3.8 2.5-5.7 1.2-2.9 1.7-6 1.6-9.2-0.1-2.5-0.1-5-0.2-7.5-0.1-3.3-0.9-6.4-2.1-9.5-0.4-1.1-0.8-2.2-1.3-3.3-1.2-3-2.5-6-3.8-9-0.3-0.6-0.8-1.2-1.3-1.7-0.8-0.6-1.5-1.2-1.8-2.2-0.4-1-1.4-1.2-2.3-0.6-0.7 0.4-1.5 1-2.3 1-1.5 0-2.6 0.7-3.7 1.4-1.9 1.3-3.7 2.6-5.5 3.8-2.5 1.6-5.1 3.1-6.8 5.7-0.1 0.2-0.6 0.4-0.7 0.3-1.4-0.6-2.5 0.1-3.6 0.6-1.4 0.6-1.7 0.5-2.1-0.9-0.1-0.2 0-0.3-0.1-0.5-0.6-1.7-1.2-3.3-1.8-5-0.5-1.2-0.9-1.3-2.1-0.8-3 1.2-5.7 2.9-7.8 5.3-0.7 0.8-1.1 1.2-2 0.4-0.1-0.1-0.4-0.1-0.6-0.2-1.6-0.7-3.3-1.4-4.4-2.9-0.4-0.5-0.9-0.9-1.4-1.3-1.7-1.5-3.8-2.4-5.9-3.2-1.4-0.5-2.7-1.2-4.2-1.5-2.1-0.5-4.2-1-6.2-1.9l-2.1-0.9c-0.7-0.2-1.4-0.3-1.9 0.4-1.7 2.2-3.4 4.4-5.2 6.6-0.4 0.5-0.8 0.9-1 1.4-0.7 1.6-1.7 2.8-2.8 4-1.7 1.7-2.9 3.9-3.5 6.1-0.6 2-0.7 4.1-0.6 6.2 0.1 2.9 0.6 5.7 0.5 8.6 0 1.2 0.1 2.4 0.3 3.5 0.5 3.2 1.3 6.4 2.7 9.3 0.8 1.7 1.3 3.5 1.8 5.2 0.7 2.5 1.6 4.8 3.3 6.8 0.8 0.9 1.3 2 1.7 3.1 1.6 4.1 4.1 7.3 8 9.5 0.6 0.3 1.2 0.9 1.4 1.6 1.4 3.4 2.8 6.9 4.6 10.2 0.1 0.2 0.1 0.4 0.1 0.6l-0.6-0.3c-2.3-2.4-5.1-4.2-8.2-5.5-2.4-1-4.7-2-7.1-3.1-2.5-1.2-5-2.6-7.5-3.7-2.8-1.2-5.7-1.5-8.7-1.1-1.9 0.3-3.8 0.8-5.6 0.8-3.8 0-7.4 0.6-11 1.5-4.9 1.2-9.8 2.8-14.2 5.4-0.7 0.4-1.3 0.9-2 1.4-0.2 0.2-0.2 0.5-0.3 0.8 0.3 0.1 0.6 0.3 0.8 0.2 0.8-0.3 1 0.7 1.7 0.6 0 1.3 1.2 1.2 2 1.5 3.9 1.5 7.7 3 11.6 4.3 3.6 1.2 7.3 2.1 10.9 3.2 2.8 0.9 5.5 2.1 8.5 2.5 2.2 0.3 4.4 0.9 6.6 1.3 3.8 0.7 7.6 1.4 11.4 2 3.7 0.6 7.4 1.1 11.1 1.6 2.4 0.3 4.9 0.5 7.3 0.8 1.2 0.1 2.4 0.4 3.6 0.5 0.6 0 1.4-0.2 1.2-1-0.2-1.2 0.3-0.6 0.7-0.4 1.2 0.7 2.4 1.6 3.9 1.8 0.3 0 0.6 0.5 0.7 0.8 0.8 1.4 1.6 2.8 2.3 4.2 0.3 0.7 0.5 1.4 0.8 2.1s0.5 1.5 0.8 2.2h0.8c0.1-0.4 0.3-0.8 0.3-1.2-0.2-1.6-0.6-3.2-1.6-4.5-0.7-0.9-1.3-1.8-2-2.6-0.6-0.8-0.6-0.9 0.3-1 1.2-0.2 2.4-0.2 3.7-0.4 0.9-0.1 1.4-0.6 1.1-1.2-0.3-0.7 0-1.2 0.3-1.7s0.6-1 1-1.5c1.8-2.1 3.3-4.4 4.3-7 0.3-0.7 0.8-1.3 1.1-2 0.4-0.8 0.7-1.5 0.9-2.3 0.4-1.4 0.5-2.9 1.6-3.9 2-1.9 3.9-3.9 6.1-5.6 2.5-1.9 4.8-3.8 7.1-6 2.2-2.1 4.6-4 6.9-6 0 0 0.1 0 0.1-0.1l6.9-4.8c1.2-0.8 2.3-1.7 3.6-2.4 2.6-1.4 5.3-2.8 8-4 2.6-1.2 5.4-1.6 8.3-1.5 0.6 0 0.9 0.1 0.6 0.8-0.3 0.6-0.5 1.2-0.6 1.8-0.4 2.1-0.8 4.1-1.2 6.2-0.7 3.3-1.6 6.7-2.4 10-0.6 2.5-1.4 4.9-3.4 6.5-2.7 2.2-5.6 4.2-8.5 6.2-3.3 2.2-6.8 4.2-10 6.5-3.6 2.5-7.2 4.8-11.5 6.1-5.7 1.8-11.4 3.4-17.5 3.4-0.5 0-1.2 0-1.2 0.7s0.5 0.9 1.1 0.9c2.4-0.1 4.8-0.1 7.2-0.5 4.7-0.7 9.1-2.5 13.6-3.9 2.3-0.7 4.3-1.9 6.3-3.3 1.7-1.2 3.3-2.3 5-3.4 4.9-3.2 10-6.2 14.7-9.8 2.8-2.1 4.8-4.7 5.6-8.2l1.8-7.8c0.5-2.4 0.8-4.7 1.4-7.1 0.4-1.8 1-3.5 1.5-5.3v-1.3c-0.6-0.1-1.2-0.2-1.9-0.2-1.2 0.5-2.5 0.6-3.7 0.8zm-39.5-32.6c1.2-2.2 3.1-3.5 5.1-4.9 2.3-1.6 4.6-3.3 6.9-5 0.9-0.7 1.9-1.2 3.1-1.2 0.7 0 1.4-0.4 2.1-0.7 0.3-0.1 0.5-0.3 0.8-0.4 0.1 0.3 0.1 0.6 0.2 0.9h-0.2c0 3 0.1 6-0.2 8.9-0.3 3-0.9 6-1.5 9-0.5 2.3-0.6 4.5-0.5 6.8 0.1 2.1-0.6 4-1.1 6 0 0.1-0.2 0.2-0.3 0.4-0.1-0.1-0.1-0.3-0.2-0.4-0.1-0.8-0.2-1.6-0.4-2.4-0.3-1.2-0.7-2.4-1.1-3.6-0.7-2-0.8-4.2-1.7-6.2-1-2.1-2.1-4-3.6-5.8-0.8-1-2.1-1.1-3.3-1.1s-2.3 0.4-3.5 0.5c-0.3 0-0.6 0-0.8 0.1 0-0.4 0-0.7 0.2-0.9zm1 1.9c0.8-0.3 1.7-0.4 2.5-0.6 1.6 0 2.7 0.6 3.5 1.9 1.3 2.2 2.6 4.4 3.2 6.9 0.5 2.2 1.1 4.3 1.6 6.5 0.2 0.9 0.1 1.9 0.3 2.8 0.2 1.2 0.6 2.4 0.9 3.7 0.1 0.3 0.1 0.7 0 1-1.1 3.5-2.2 7-3.4 10.4-0.6 1.7-1.4 3.3-2.1 4.9-0.1 0.1-0.2 0.3-0.3 0.4-0.1-0.2-0.2-0.3-0.3-0.5-0.6-2.1-1-4.3-1.7-6.3-0.7-2.1-1.6-4.2-2.6-6.2-1.1-2.2-2.3-4.4-3.7-6.5-1.7-2.6-4-4.7-6.3-6.8-1.2-1-2.3-2.1-3.5-3.2-0.5-0.4-0.5-0.7 0-1.1 0.8-0.7 1.6-1.4 2.5-2 1.5-1 2.9-2 4.5-2.9s3.2-1.7 4.9-2.4zm-7-1.2c0.7-0.2 1.5-0.3 2.1-0.4 0.7 0.3 1.5-0.3 1.9 0.6 0.2 0.5 0.3 0.8-0.3 1-0.5 0.1-0.9 0.4-1.4 0.6-1.1 0.5-2.5-0.2-2.6-1.4-0.1-0.1 0.1-0.4 0.3-0.4zm-4-5.5c0.1 0.1 0.1 0.3 0.2 0.4 0.7 1.8 1.4 3.7 2.1 5.5 0.1 0.4 0.3 0.7 0.5 1 0.3 0.5 1 1.1 0.8 1.6-0.1 0.5-0.9 0.8-1.4 1.2-0.9 0.7-1.7 1.4-2.6 2.1-0.5 0.5-0.7 0.3-0.7-0.4v-2.7c-0.5-2.9 0.4-5.6 0.8-8.4 0-0.1 0.2-0.2 0.3-0.3zm-10.1 6c1-2.4 2.8-4 4.8-5.4 1-0.6 1.9-1.3 2.9-1.9 0.4-0.3 0.9-0.4 1.4-0.5 0.1 0 0.3 0.1 0.6 0.3-1.1 0.5-0.9 1.3-1.1 2.1-0.5 2.6-1.1 5.3-1 8 0.1 1.4-0.1 2.7-0.1 4.1 0 0.2-0.1 0.3-0.1 0.5-0.2-0.1-0.4-0.1-0.5-0.3-1.1-1-2.1-1.9-3.2-2.9s-2.3-1.4-3.7-1.3h-0.8c-0.3 0-0.7-0.1-1-0.2 0.2-0.3 0.3-0.5 0.5-0.8 0.5-0.5 1-1 1.3-1.7zm-21.2 54.3c-1.9-0.7-3.2-2.3-4.8-3.5-0.4-0.4-0.7-1-1-1.5-1.1-2.1-2.3-4.2-3.4-6.2-0.3-0.6-0.8-1.1-1.2-1.6-0.9-1.1-1.6-2.3-2-3.7-0.8-3-2-5.8-3.3-8.6-2-4.1-2.8-8.5-2.4-13.1-0.2-1.8-0.5-3.5-0.6-5.3 0-1.7 0.2-3.4 0.4-5 0.4-3.1 2-5.6 3.9-8 0.6-0.8 1.2-1.7 1.7-2.5 1.3-2 2.6-4.1 4-6 0.7-1 1.5-1.9 2.3-2.8 0.2-0.2 0.7-0.3 1-0.2 0.8 0.3 1.5 0.7 2.3 1.1 1.6 1 3.4 1.4 5.2 1.8 1.8 0.5 3.6 1.3 5.4 1.9 1.9 0.6 3.6 1.5 5.1 2.8 0.4 0.3 0.8 0.5 1.1 0.9 1.6 1.9 3.7 2.9 6.1 3.3 0.4 0.1 0.5 0.2 0.3 0.6-0.3 0.6-0.7 1.2-1 1.7-0.2 0.4-0.4 0.8-0.5 1.3-0.1 0.2-0.1 0.3-0.1 0.5-0.1-0.1-0.3-0.1-0.4-0.2-0.2-0.2-0.4-0.5-0.5-0.7-1.7-2.7-4.1-3.7-7.2-3.3-0.6 0.1-1.1 0.5-1.6 0.9-0.4 0.3-0.8 0.5-1.4 0.4-1.5-0.3-3-0.2-4.4 0.7-1 0.6-2.1 1-3.2 1.4-3.8 1.4-6.2 4-7.2 7.9-0.7 2.5-1.5 5-1.9 7.6-0.6 3.9-1.7 7.8-0.9 11.7 0.2 1.3 0.9 2.5 1.3 3.8 0.6 1.7 1.1 3.4 1.7 5 0.4 1 0.8 2 1.3 3 1 2 2.3 3.9 3.2 5.9 1.2 2.5 2.3 5 3.4 7.5 0.1 0.2 0.1 0.5 0.2 0.8-0.4-0.1-0.7-0.2-0.9-0.3zm11.6 26.3c-2.9-0.8-5.9-0.6-8.8-1-4.4-0.6-8.7-1.4-13-2.1l-6-0.9c-2.5-0.4-5-0.9-7.5-1.4-1.9-0.4-3.9-0.7-5.8-1.3-4-1.2-8-2.5-12-3.8-4.4-1.4-8.7-2.9-13.1-4.4-0.7-0.2-1.5-0.4-2.2-0.6-0.1 0-0.3-0.1-0.4-0.1 0.1-0.1 0.2-0.3 0.4-0.3 1.3-0.2 2.6-0.5 3.9-0.6 1.7-0.1 3.4 0 5.1 0v0.1c2.4-0.1 4.8-0.2 7.1-0.3 2.8-0.1 5.2 0.9 7.7 1.9 2.5 1.1 5 1.7 7.6 2.1 1.1 0.2 2.1 0.6 3.2 0.8 3.2 0.6 6.5 1.1 9.7 1.8 1.7 0.3 3.3 0.8 4.9 1.5 3.4 1.6 7 2.9 10.7 3.8 1.2 0.3 2.4 0.8 3.6 1.3 0.8 0.3 1.5 0.9 2.3 1.4 0.9 0.6 1.8 1.2 2.7 1.9 0.1 0.1 0.2 0.2 0.2 0.3-0.1-0.1-0.2-0.1-0.3-0.1zm0.2-2.7c-0.5-0.3-0.9-0.7-1.5-1-1.2-0.7-2.4-1.4-3.7-1.9-4.4-1.5-9-2.7-13.3-4.4-3.4-1.3-6.9-1.8-10.4-2.5-4-0.8-8-1.4-11.9-2.4-1.9-0.4-3.7-1.4-5.6-2.1-2.5-1-5.1-1.3-7.8-1-2.4 0.3-4.9 0.1-7.4 0.1-1.3 0-2.6 0.2-3.9 0.2-0.4 0-0.9-0.1-1.3-0.1 0.3-0.2 0.7-0.5 1.1-0.6 1.6-0.6 3.3-1 4.9-1.6 3.3-1.2 6.6-1.9 10-2.5 1.2-0.2 2.5-0.4 3.8-0.4 2.9-0.1 5.8-0.4 8.7-1.1 2.3-0.5 4.6-0.2 6.7 0.7 5.8 2.6 11.6 5.3 17.4 8 2.3 1 4 2.8 6 4.3 0.3 0.3 0.6 0.7 1 0.8 2.7 1 4.2 3.3 5.9 5.4 0.5 0.7 1 1.4 1.5 2 0 0.1 0.1 0.2 0.1 0.2-0.2-0.1-0.3-0.1-0.3-0.1zm0.1-3.1c-0.1 0-0.2-0.1-0.2-0.1l-3-3.6c-0.4-0.5-0.9-1-1.3-1.5-1.8-2.1-2.8-4.6-4-7-0.6-1.1-1-2.2-1.5-3.3-0.1-0.1 0-0.3-0.1-0.5 0.6 0 1.2 0 1.7 0.2 0.3 0.1 0.5 0.4 0.7 0.7 0.9 1.8 1.6 3.7 2.6 5.5 1.6 2.9 3.3 5.8 4.9 8.7 0.1 0.3 0.3 0.5 0.4 0.7-0.1 0.1-0.1 0.2-0.2 0.2zm51.5-36.8c0.6 1-0.1 1.3-0.7 1.8l-7.2 5.1c-0.1 0.1-0.3 0.2-0.4 0.3-1.5 2.1-3.9 3.3-5.7 5-1.4 1.3-2.9 2.6-4.3 3.9-0.2 0.2-0.5 0.3-0.8 0.4-0.2 0.3-0.4 0.6-0.7 0.8-2.2 1.8-4.3 3.7-6.5 5.5-1.8 1.4-2.8 3.3-3.2 5.5-0.2 1-0.5 1.9-1.2 2.7-0.3 0.4-0.6 0.9-0.8 1.4-0.8 2.1-2.2 3.8-3.4 5.7-0.8 1.3-1.5 2.7-2.3 4.1-0.2 0.3-0.5 0.8-0.8 0.8-2.8 0.5-5.5 0.5-7.9-1.2-0.6-0.4-1.2-1-1.6-1.6-2.4-4.3-4.7-8.6-7.1-12.9l-0.3-0.6c-1.2-4.1-3.8-7.4-5.8-11.1-1.4-2.5-2.4-5.1-3.7-7.6-1.1-2.2-2.4-4.3-3.6-6.6-0.8-1.5-1.4-3-2-4.5-0.7-1.7-1.4-3.4-2-5.2-0.3-0.7-0.4-1.5-0.5-2.2-0.2-3.9 0.7-7.7 1.2-11.5 0.4-3 1.3-5.7 2.3-8.5 0.7-1.9 2-3.3 3.8-4.1 1.2-0.6 2.4-1 3.6-1.5 0.8-0.3 1.7-0.6 2.5-1 1.1-0.6 2.2-0.6 3.3-0.3 0.8 0.2 1.3 0.2 1.8-0.6 0.8-1.1 2.3-1.5 3.7-1 1.3 0.6 2.7 1.3 3.2 2.7 0.6 1.7 2 2 3.5 2.3h0.5c2.4-0.5 4.1 0.8 5.6 2.5 1.4 1.5 2.8 2.9 4.2 4.2 2.2 2.1 4.5 4 6.6 6.2 1.5 1.6 2.7 3.4 3.8 5.2 1.4 2.4 2.7 4.9 3.7 7.5s1.6 5.4 2.3 8.1c0.3 0.9 0.5 1.9 0.7 2.8 0.1 0.3 0.1 0.6 0 0.8-1.1 3.3-2.2 6.6-3.3 10-0.2 0.6-0.4 1.3-0.6 1.9-0.2 0.8 0.1 1.1 0.9 1 0.7-2.3 1.5-4.6 2.2-6.9 0.5-1.5 0.9-3 1.5-4.4 1-2.4 2.1-4.8 3.1-7.2 0.5-1.2 1.1-2.5 1.6-3.7 1.3-3.3 2.6-6.7 3.8-10.1 1.1-3.1 1.9-6.2 1.9-9.5 0-3.2 0.7-6.4 1.5-9.5 0.7-2.8 0.8-5.7 0.9-8.6 0.1-1.6 0-3.2 0.1-4.8 0-0.2 0.1-0.4 0.2-0.7 0.2 0.1 0.5 0.2 0.6 0.4 0.2 0.2 0.4 0.5 0.5 0.8 1.3 3 2.5 6 3.8 9 0.4 0.9 0.7 1.9 1 2.8 1.5 4.1 2.5 8.2 2.3 12.6-0.1 2.9 0.1 5.8-0.5 8.8-0.5 2.5-1.5 4.8-2.5 7.2-1 2.2-1.8 4.4-2.7 6.5 0 0.5-0.2 0.9-0.1 1.1z"/>
		<path d="m148.1 398.7c0.1 0 0.1 0 0 0 0.1 0 0 0 0 0z"/>
		<path d="m135.9 428.5c-0.1-0.4-0.5-1.2-0.7-1.1-0.7 0.1-0.5 0.8-0.6 1.3v0.1h-0.1c0.3 1.2 0.6 2.4 0.9 3.5 0.2 0.6 0.5 1.3 1.1 1.1 0.8-0.2 0.4-1.1 0.3-1.6-0.2-1.1-0.6-2.2-0.9-3.3z"/>
		<path d="m7 236.2c0.6 0 1.4-0.2 1.2-1-0.2-1.2 0.4-0.7 0.8-0.4 1.2 0.7 2.4 1.6 3.9 1.8 0.3 0 0.6 0.5 0.7 0.8 0.8 1.4 1.6 2.8 2.3 4.2 0.3 0.7 0.5 1.4 0.8 2.1s0.5 1.5 0.8 2.2h0.8c0.1-0.4 0.3-0.8 0.3-1.2-0.2-1.6-0.6-3.2-1.6-4.5-0.7-0.9-1.3-1.8-2-2.6-0.6-0.8-0.6-0.9 0.3-1 1.2-0.2 2.4-0.2 3.7-0.4 0.9-0.1 1.4-0.6 1.1-1.2-0.3-0.7 0-1.2 0.3-1.7s0.6-1 1-1.5c1.8-2.1 3.3-4.4 4.3-7 0.3-0.7 0.8-1.3 1.1-2 0.4-0.8 0.7-1.5 0.9-2.3 0.4-1.4 0.5-2.9 1.6-3.9 2-1.9 3.9-3.9 6.1-5.6 2.5-1.9 4.8-3.8 7.1-6 2.2-2.1 4.6-4 6.9-6 0 0 0.1 0 0.1-0.1l6.9-4.8c1.2-0.8 2.3-1.7 3.6-2.4 2.6-1.4 5.3-2.8 8-4 2.6-1.2 5.4-1.6 8.3-1.5 0.6 0 0.9 0.1 0.6 0.8-0.3 0.6-0.5 1.2-0.6 1.8-0.4 2.1-0.8 4.1-1.2 6.2-0.7 3.3-1.6 6.7-2.4 10-0.6 2.5-1.4 4.9-3.4 6.5-2.7 2.2-5.6 4.2-8.5 6.2-3.3 2.2-6.8 4.2-10 6.5-3.6 2.5-7.2 4.8-11.5 6.1-5.7 1.8-11.4 3.4-17.5 3.4-0.5 0-1.2 0-1.2 0.7s0.5 0.9 1.1 0.9c2.4-0.1 4.8-0.1 7.2-0.5 4.7-0.7 9.1-2.5 13.6-3.9 2.3-0.7 4.3-1.9 6.3-3.3 1.7-1.2 3.3-2.3 5-3.4 4.9-3.2 10-6.2 14.7-9.8 2.8-2.1 4.8-4.7 5.6-8.2l1.8-7.8c0.5-2.4 0.8-4.7 1.4-7.1 0.4-1.8 1-3.5 1.5-5.3v-1.3c-0.6-0.1-1.2-0.2-1.9-0.2-1.2 0-2.5 0.1-3.7 0.3-2.6 0.4-5.1 1-7.4 2.2-2.3 1.3-4.7 2.4-7.1 3.6-0.2 0.1-0.4 0.1-0.6 0.1 0-0.2 0-0.4 0.1-0.6 0.4-1 0.8-1.9 1.2-2.9 0.8-1.9 1.7-3.8 2.5-5.7 1.2-2.9 1.7-6 1.6-9.2-0.1-2.5-0.1-5-0.2-7.5-0.1-3.3-0.9-6.4-2.1-9.5-0.4-1.1-0.8-2.2-1.3-3.3-1.2-3-2.5-6-3.8-9-0.3-0.6-0.8-1.2-1.3-1.7-0.8-0.6-1.5-1.2-1.8-2.2-0.4-1-1.4-1.2-2.3-0.6-0.7 0.4-1.5 1-2.3 1-1.5 0-2.6 0.7-3.7 1.4-1.9 1.3-3.7 2.6-5.5 3.8-2.5 1.6-5.1 3.1-6.8 5.7-0.1 0.2-0.6 0.4-0.7 0.3-1.4-0.6-2.5 0.1-3.6 0.6-1.4 0.6-1.7 0.5-2.1-0.9-0.1-0.2 0-0.3-0.1-0.5-0.6-1.7-1.2-3.3-1.8-5-0.5-1.2-0.9-1.3-2.1-0.8-3 1.2-5.7 2.9-7.8 5.3-0.7 0.8-1.1 1.2-2 0.4-0.1-0.1-0.4-0.1-0.6-0.2-1.6-0.7-3.3-1.4-4.4-2.9-0.4-0.5-0.9-0.9-1.4-1.3-1.8-1.1-3.8-2-5.8-2.8v1.9c1.8 0.6 3.5 1.5 5 2.7 0.4 0.3 0.8 0.5 1.1 0.9 1.6 1.9 3.7 2.9 6.1 3.3 0.4 0.1 0.5 0.2 0.3 0.6-0.3 0.6-0.7 1.2-1 1.7-0.2 0.4-0.4 0.8-0.5 1.3-0.1 0.2-0.1 0.3-0.1 0.5-0.1-0.1-0.3-0.1-0.4-0.2-0.2-0.2-0.4-0.5-0.5-0.7-1.7-2.7-4.1-3.7-7.2-3.3-0.6 0.1-1.1 0.5-1.6 0.9-0.4 0.3-0.7 0.5-1.1 0.4v1.6c0.8 0.2 1.3 0.1 1.8-0.6 0.8-1.1 2.3-1.5 3.7-1 1.3 0.6 2.7 1.3 3.2 2.7 0.6 1.7 2 2 3.5 2.3h0.5c2.4-0.5 4.1 0.8 5.6 2.5 1.4 1.5 2.8 2.9 4.2 4.2 2.2 2.1 4.5 4 6.6 6.2 1.5 1.6 2.7 3.4 3.8 5.2 1.4 2.4 2.7 4.9 3.7 7.5s1.6 5.4 2.3 8.1c0.3 0.9 0.5 1.9 0.7 2.8 0.1 0.3 0.1 0.6 0 0.8-1.1 3.3-2.2 6.6-3.3 10-0.2 0.6-0.4 1.3-0.6 1.9-0.2 0.8 0.1 1.1 0.9 1 0.7-2.3 1.5-4.6 2.2-6.9 0.5-1.5 0.9-3 1.5-4.4 1-2.4 2.1-4.8 3.1-7.2 0.5-1.2 1.1-2.5 1.6-3.7 1.3-3.3 2.6-6.7 3.8-10.1 1.1-3.1 1.9-6.2 1.9-9.5 0-3.2 0.7-6.4 1.5-9.5 0.7-2.8 0.8-5.7 0.9-8.6 0.1-1.6 0-3.2 0.1-4.8 0-0.2 0.1-0.4 0.2-0.7 0.2 0.1 0.5 0.2 0.6 0.4 0.2 0.2 0.4 0.5 0.5 0.8 1.3 3 2.5 6 3.8 9 0.4 0.9 0.7 1.9 1 2.8 1.5 4.1 2.5 8.2 2.3 12.6-0.1 2.9 0.1 5.8-0.5 8.8-0.5 2.5-1.5 4.8-2.5 7.2-1 2.2-1.8 4.4-2.7 6.5-0.1 0.3-0.3 0.7-0.1 0.8 0.6 1-0.1 1.3-0.7 1.8l-7.2 5.1c-0.1 0.1-0.3 0.2-0.4 0.3-1.5 2.1-3.9 3.3-5.7 5-1.4 1.3-2.9 2.6-4.3 3.9-0.2 0.2-0.5 0.3-0.8 0.4-0.2 0.3-0.4 0.6-0.7 0.8-2.2 1.8-4.3 3.7-6.5 5.5-1.8 1.4-2.8 3.3-3.2 5.5-0.2 1-0.5 1.9-1.2 2.7-0.3 0.4-0.6 0.9-0.8 1.4-0.8 2.1-2.2 3.8-3.4 5.7-0.8 1.3-1.5 2.7-2.3 4.1-0.2 0.3-0.5 0.8-0.8 0.8-2.8 0.5-5.5 0.5-7.9-1.2-0.6-0.4-1.2-1-1.6-1.6-2.4-4.3-4.7-8.6-7.1-12.9l-0.3-0.6c-0.2-0.8-0.5-1.6-0.9-2.4v4.2c1.3 2.4 2.7 4.7 4 7.1 0.1 0.3 0.3 0.5 0.4 0.7-0.1 0.1-0.1 0.2-0.1 0.3-0.1 0-0.2-0.1-0.2-0.1l-3-3.6c-0.4-0.4-0.8-0.8-1.1-1.2v2.6c1 1 1.8 2.2 2.7 3.3 0.5 0.7 1 1.4 1.5 2 0 0.1 0.1 0.2 0.1 0.2-0.1 0-0.1-0.1-0.2-0.1-0.5-0.3-0.9-0.7-1.5-1-0.9-0.5-1.8-1-2.7-1.4v2.1c0.5 0.3 0.9 0.6 1.3 0.9 0.9 0.6 1.8 1.2 2.7 1.9 0.1 0.1 0.2 0.2 0.2 0.3-0.1 0-0.2 0.1-0.4 0.1-1.3-0.4-2.6-0.5-3.9-0.6v2.1c1.1 0.1 2.3 0.2 3.4 0.4 1.3 0 2.5 0.3 3.7 0.4zm20.6-83.4c0.7-0.2 1.5-0.3 2.1-0.4 0.7 0.3 1.5-0.3 1.9 0.6 0.2 0.5 0.3 0.8-0.3 1-0.5 0.1-0.9 0.4-1.4 0.6-1.1 0.5-2.5-0.2-2.6-1.4-0.1-0.1 0.2-0.4 0.3-0.4zm-3.9-5.5c0.1 0.1 0.1 0.3 0.2 0.4 0.7 1.8 1.4 3.7 2.1 5.5 0.1 0.4 0.3 0.7 0.5 1 0.3 0.5 1 1.1 0.8 1.6-0.1 0.5-0.9 0.8-1.4 1.2-0.9 0.7-1.7 1.4-2.6 2.1-0.5 0.5-0.7 0.3-0.7-0.4v-2.7c-0.5-2.9 0.4-5.6 0.8-8.4 0-0.1 0.2-0.2 0.3-0.3zm-2.5 8.6c0.1 1.4-0.1 2.7-0.1 4.1 0 0.2-0.1 0.3-0.1 0.5-0.2-0.1-0.4-0.1-0.5-0.3-1.1-1-2.1-1.9-3.2-2.9s-2.3-1.4-3.7-1.3h-0.8c-0.3 0-0.7-0.1-1-0.2 0.2-0.3 0.3-0.5 0.5-0.8 0.4-0.6 0.9-1.2 1.2-1.8 1-2.4 2.8-4 4.8-5.4 1-0.6 1.9-1.3 2.9-1.9 0.4-0.3 0.9-0.4 1.4-0.5 0.1 0 0.3 0.1 0.6 0.3-1.1 0.5-0.9 1.3-1.1 2.1-0.4 2.8-1 5.4-0.9 8.1zm25.5 20.1c-1.1 3.5-2.2 7-3.4 10.4-0.6 1.7-1.4 3.3-2.1 4.9-0.1 0.1-0.2 0.3-0.3 0.4-0.1-0.2-0.2-0.3-0.3-0.5-0.6-2.1-1-4.3-1.7-6.3-0.7-2.1-1.6-4.2-2.6-6.2-1.1-2.2-2.3-4.4-3.7-6.5-1.7-2.6-4-4.7-6.3-6.8-1.2-1-2.3-2.1-3.5-3.2-0.5-0.4-0.5-0.7 0-1.1 0.8-0.7 1.6-1.4 2.5-2 1.5-1 2.9-2 4.5-2.9s3.2-1.7 4.9-2.4c0.8-0.3 1.7-0.4 2.5-0.6 1.6 0 2.7 0.6 3.5 1.9 1.3 2.2 2.6 4.4 3.2 6.9 0.5 2.2 1.1 4.3 1.6 6.5 0.2 0.9 0.1 1.9 0.3 2.8 0.2 1.2 0.6 2.4 0.9 3.7 0 0.3 0.1 0.7 0 1zm4.7-26.4c-0.3 3-0.9 6-1.5 9-0.5 2.3-0.6 4.5-0.5 6.8 0.1 2.1-0.6 4-1.1 6 0 0.1-0.2 0.2-0.3 0.4-0.1-0.1-0.1-0.3-0.2-0.4-0.1-0.8-0.2-1.6-0.4-2.4-0.3-1.2-0.7-2.4-1.1-3.6-0.7-2-0.8-4.2-1.7-6.2-1-2.1-2.1-4-3.6-5.8-0.8-1-2.1-1.1-3.3-1.1s-2.3 0.4-3.5 0.5c-0.3 0-0.6 0-0.8 0.1 0.1-0.3 0.1-0.6 0.3-0.8 1.2-2.2 3.1-3.5 5.1-4.9 2.3-1.6 4.6-3.3 6.9-5 0.9-0.7 1.9-1.2 3.1-1.2 0.7 0 1.4-0.4 2.1-0.7 0.3-0.1 0.5-0.3 0.8-0.4 0.1 0.3 0.1 0.6 0.2 0.9h-0.2c-0.2 2.9-0.1 5.9-0.3 8.8z"/>
		<path d="m36.6 207.8z"/>
		<path d="m24.3 237.7c-0.1-0.4-0.5-1.2-0.7-1.1-0.7 0.1-0.5 0.8-0.6 1.3v0.1h-0.1c0.3 1.2 0.6 2.4 0.9 3.5 0.2 0.6 0.5 1.3 1.1 1.1 0.8-0.2 0.4-1.1 0.3-1.6-0.2-1.1-0.5-2.2-0.9-3.3z"/>
		<path d="m495.1 232.9c-4.4-0.6-8.7-1.4-13-2.1l-6-0.9c-2.5-0.4-5-0.9-7.5-1.4-1.9-0.4-3.9-0.7-5.8-1.3-4-1.2-8-2.5-12-3.8-4.4-1.4-8.7-2.9-13.1-4.4-0.7-0.2-1.5-0.4-2.2-0.6-0.1 0-0.3-0.1-0.4-0.1 0.1-0.1 0.2-0.3 0.4-0.3 1.3-0.2 2.6-0.5 3.9-0.6 1.7-0.1 3.4 0 5.1 0v0.1c2.4-0.1 4.8-0.2 7.1-0.3 2.8-0.1 5.2 0.9 7.7 1.9 2.5 1.1 5 1.7 7.6 2.1 1.1 0.2 2.1 0.6 3.2 0.8 3.2 0.6 6.5 1.1 9.7 1.8 1.7 0.3 3.3 0.8 4.9 1.5 3.4 1.6 7 2.9 10.7 3.8 1.2 0.3 2.4 0.8 3.6 1.3 0.3 0.1 0.6 0.3 0.9 0.5v-2.1c-0.3-0.2-0.7-0.3-1-0.4-4.4-1.5-9-2.7-13.3-4.4-3.4-1.3-6.9-1.8-10.4-2.5-4-0.8-8-1.4-11.9-2.4-1.9-0.4-3.7-1.4-5.6-2.1-2.5-1-5.1-1.3-7.8-1-2.4 0.3-4.9 0.1-7.4 0.1-1.3 0-2.6 0.2-3.9 0.2-0.4 0-0.9-0.1-1.3-0.1 0.3-0.2 0.7-0.5 1.1-0.6 1.6-0.6 3.3-1 4.9-1.6 3.3-1.2 6.6-1.9 10-2.5 1.2-0.2 2.5-0.4 3.8-0.4 2.9-0.1 5.8-0.4 8.7-1.1 2.3-0.5 4.6-0.2 6.7 0.7 5.8 2.6 11.6 5.3 17.4 8 2.3 1 4 2.8 6 4.3 0.3 0.3 0.6 0.7 1 0.8 1.3 0.5 2.3 1.2 3.2 2.1v-2.6c-0.1-0.1-0.1-0.2-0.2-0.2-1.8-2.1-2.8-4.6-4-7-0.6-1.1-1-2.2-1.5-3.3-0.1-0.1 0-0.3-0.1-0.5 0.6 0.1 1.2 0 1.7 0.2 0.3 0.1 0.5 0.4 0.7 0.7 0.9 1.8 1.6 3.7 2.6 5.5 0.3 0.5 0.6 1.1 0.9 1.6v-4.2c-1.3-3.1-3.3-5.8-4.9-8.7-1.4-2.5-2.4-5.1-3.7-7.6-1.1-2.2-2.4-4.3-3.6-6.6-0.8-1.5-1.4-3-2-4.5-0.7-1.7-1.4-3.4-2-5.2-0.3-0.7-0.4-1.5-0.5-2.2-0.2-3.9 0.7-7.7 1.2-11.5 0.4-3 1.3-5.7 2.3-8.5 0.7-1.9 2-3.3 3.8-4.1 1.2-0.6 2.4-1 3.6-1.5 0.8-0.3 1.7-0.6 2.5-1 1.1-0.6 2.2-0.6 3.3-0.3v-1.6h-0.3c-1.5-0.3-3-0.2-4.4 0.7-1 0.6-2.1 1-3.2 1.4-3.8 1.4-6.2 4-7.2 7.9-0.7 2.5-1.5 5-1.9 7.6-0.6 3.9-1.7 7.8-0.9 11.7 0.2 1.3 0.9 2.5 1.3 3.8 0.6 1.7 1.1 3.4 1.7 5 0.4 1 0.8 2 1.3 3 1 2 2.3 3.9 3.2 5.9 1.2 2.5 2.3 5 3.4 7.5 0.1 0.2 0.1 0.5 0.2 0.8-0.3-0.1-0.5-0.2-0.8-0.3-1.9-0.7-3.2-2.3-4.8-3.5-0.4-0.4-0.7-1-1-1.5-1.1-2.1-2.3-4.2-3.4-6.2-0.3-0.6-0.8-1.1-1.2-1.6-0.9-1.1-1.6-2.3-2-3.7-0.8-3-2-5.8-3.3-8.6-2-4.1-2.8-8.5-2.4-13.1-0.2-1.8-0.5-3.5-0.6-5.3 0-1.7 0.2-3.4 0.4-5 0.4-3.1 2-5.6 3.9-8 0.6-0.8 1.2-1.7 1.7-2.5 1.3-2 2.6-4.1 4-6 0.7-1 1.5-1.9 2.3-2.8 0.2-0.2 0.7-0.3 1-0.2 0.8 0.3 1.5 0.7 2.3 1.1 1.6 1 3.4 1.4 5.2 1.8 1.8 0.5 3.6 1.3 5.4 1.9h0.1v-1.9c-0.1 0-0.1-0.1-0.2-0.1-1.4-0.5-2.7-1.2-4.2-1.5-2.1-0.5-4.2-1-6.2-1.9l-2.1-0.9c-0.7-0.2-1.4-0.3-1.9 0.4-1.7 2.2-3.4 4.4-5.2 6.6-0.4 0.5-0.8 0.9-1 1.4-0.7 1.6-1.7 2.8-2.8 4-1.7 1.7-2.9 3.9-3.5 6.1-0.6 2-0.7 4.1-0.6 6.2 0.1 2.9 0.6 5.7 0.5 8.6 0 1.2 0.1 2.4 0.3 3.5 0.5 3.2 1.3 6.4 2.7 9.3 0.8 1.7 1.3 3.5 1.8 5.2 0.7 2.5 1.6 4.8 3.3 6.8 0.8 0.9 1.3 2 1.7 3.1 1.6 4.1 4.1 7.3 8 9.5 0.6 0.3 1.2 0.9 1.4 1.6 1.4 3.4 2.8 6.9 4.6 10.2 0.1 0.2 0.1 0.4 0.1 0.6l-0.6-0.3c-2.3-2.4-5.1-4.2-8.2-5.5-2.4-1-4.7-2-7.1-3.1-2.5-1.2-5-2.6-7.5-3.7-2.8-1.2-5.7-1.5-8.7-1.1-1.9 0.3-3.8 0.8-5.6 0.8-3.8 0-7.4 0.6-11 1.5-4.9 1.2-9.8 2.8-14.2 5.4-0.7 0.4-1.3 0.9-2 1.4-0.2 0.2-0.2 0.5-0.3 0.8 0.3 0.1 0.6 0.3 0.8 0.2 0.8-0.3 1 0.7 1.7 0.6 0 1.3 1.2 1.2 2 1.5 3.9 1.5 7.7 3 11.6 4.3 3.6 1.2 7.3 2.1 10.9 3.2 2.8 0.9 5.5 2.1 8.5 2.5 2.2 0.3 4.4 0.9 6.6 1.3 3.8 0.7 7.6 1.4 11.4 2 3.7 0.6 7.4 1.1 11.1 1.6 1.3 0.2 2.6 0.3 3.9 0.4v-2.1c-1.8 0-3.5 0-5.1-0.2z"/>
		<path d="m374.9 5.8c-5.7 1.8-11.4 3.4-17.5 3.4-0.5 0-1.2 0-1.2 0.7-0.1 0.7 0.5 0.9 1.1 0.9 2.4-0.1 4.8-0.1 7.2-0.5 4.7-0.7 9.1-2.5 13.6-3.9 2.3-0.7 4.3-1.9 6.3-3.3 1.5-1 3-2.1 4.5-3.1h-3c-3.4 2.4-6.9 4.6-11 5.8z"/>
		<path d="m302.7 5.6c2.2 0.3 4.4 0.9 6.6 1.3 3.8 0.7 7.6 1.4 11.4 2 3.7 0.6 7.4 1.1 11.1 1.6 2.4 0.3 4.9 0.5 7.3 0.8 1.2 0.1 2.4 0.4 3.6 0.5 0.6 0 1.4-0.2 1.2-1-0.2-1.2 0.3-0.6 0.7-0.4 1.2 0.7 2.4 1.6 3.9 1.8 0.3 0 0.6 0.5 0.7 0.8 0.8 1.4 1.6 2.8 2.3 4.2 0.3 0.7 0.5 1.4 0.8 2.1s0.5 1.5 0.8 2.2h0.8c0.1-0.4 0.3-0.8 0.3-1.2-0.2-1.6-0.6-3.2-1.6-4.5-0.7-0.9-1.3-1.8-2-2.6-0.6-0.8-0.6-0.9 0.3-1 1.2-0.2 2.4-0.2 3.7-0.4 0.9-0.1 1.4-0.6 1.1-1.2-0.3-0.7 0-1.2 0.3-1.7s0.6-1 1-1.5c1.8-2.1 3.3-4.4 4.3-7 0.1-0.1 0.1-0.3 0.2-0.4h-1.9c-0.8 1.8-2.1 3.3-3.1 5-0.8 1.3-1.5 2.7-2.3 4.1-0.2 0.3-0.5 0.8-0.8 0.8-2.8 0.5-5.5 0.5-7.9-1.2-0.6-0.4-1.2-1-1.6-1.6-1.3-2.4-2.7-4.8-4-7.2h-1.8l1.5 2.7c0.1 0.3 0.3 0.5 0.4 0.7-0.1 0.1-0.1 0.2-0.1 0.3-0.1 0-0.2-0.1-0.2-0.1-1-1.2-1.9-2.4-2.9-3.5h-2.8c1.8 1.2 3 2.9 4.3 4.6 0.5 0.7 1 1.4 1.5 2 0 0.1 0.1 0.2 0.1 0.2-0.1 0-0.1-0.1-0.2-0.1-0.5-0.3-0.9-0.7-1.5-1-1.2-0.7-2.4-1.4-3.7-1.9-4-1.3-8-2.5-11.9-3.9h-4.4c0.7 0.2 1.4 0.5 2.1 0.8 3.4 1.6 7 2.9 10.7 3.8 1.2 0.3 2.4 0.8 3.6 1.3 0.8 0.3 1.5 0.9 2.3 1.4 0.9 0.6 1.8 1.2 2.7 1.9 0.1 0.1 0.2 0.2 0.2 0.3-0.1 0-0.2 0.1-0.4 0.1-2.9-0.8-5.9-0.6-8.8-1-4.4-0.6-8.7-1.4-13-2.1l-6-0.9c-2.5-0.4-5-0.9-7.5-1.4-1.9-0.4-3.9-0.7-5.8-1.3-2.9-0.9-5.8-1.8-8.8-2.8h-6c3.5 1.1 7 2 10.5 3.1 3.1 0.9 5.8 2.1 8.7 2.5z"/>
		<path d="m359.9 13.3c-0.1-0.4-0.5-1.2-0.7-1.1-0.7 0.1-0.5 0.8-0.6 1.3v0.1h-0.1c0.3 1.2 0.6 2.4 0.9 3.5 0.2 0.6 0.5 1.3 1.1 1.1 0.8-0.2 0.4-1.1 0.3-1.6-0.2-1.1-0.5-2.2-0.9-3.3z"/>
		<path d="m404.2 489.8c2.8-2.1 4.8-4.7 5.6-8.2l1.8-7.8c0.5-2.4 0.8-4.7 1.4-7.1 0.4-1.8 1-3.5 1.5-5.3v-1.3c-0.6-0.1-1.2-0.2-1.9-0.2-1.2 0-2.5 0.1-3.7 0.3-2.6 0.4-5.1 1-7.4 2.2-2.3 1.3-4.7 2.4-7.1 3.6-0.2 0.1-0.4 0.1-0.6 0.1 0-0.2 0-0.4 0.1-0.6 0.4-1 0.8-1.9 1.2-2.9 0.8-1.9 1.7-3.8 2.5-5.7 1.2-2.9 1.7-6 1.6-9.2-0.1-2.5-0.1-5-0.2-7.5-0.1-3.3-0.9-6.4-2.1-9.5-0.4-1.1-0.8-2.2-1.3-3.3-1.2-3-2.5-6-3.8-9-0.3-0.6-0.8-1.2-1.3-1.7-0.8-0.6-1.5-1.2-1.8-2.2-0.4-1-1.4-1.2-2.3-0.6-0.7 0.4-1.5 1-2.3 1-1.5 0-2.6 0.7-3.7 1.4-1.9 1.3-3.7 2.6-5.5 3.8-2.5 1.6-5.1 3.1-6.8 5.7-0.1 0.2-0.6 0.4-0.7 0.3-1.4-0.6-2.5 0.1-3.6 0.6-1.4 0.6-1.7 0.5-2.1-0.9-0.1-0.2 0-0.3-0.1-0.5-0.6-1.7-1.2-3.3-1.8-5-0.5-1.2-0.9-1.3-2.1-0.8-3 1.2-5.7 2.9-7.8 5.3-0.7 0.8-1.1 1.2-2 0.4-0.1-0.1-0.4-0.1-0.6-0.2-1.6-0.7-3.3-1.4-4.4-2.9-0.4-0.5-0.9-0.9-1.4-1.3-1.7-1.5-3.8-2.4-5.9-3.2-1.4-0.5-2.7-1.2-4.2-1.5-2.1-0.5-4.2-1-6.2-1.9l-2.1-0.9c-0.7-0.2-1.4-0.3-1.9 0.4-1.7 2.2-3.4 4.4-5.2 6.6-0.4 0.5-0.8 0.9-1 1.4-0.7 1.6-1.7 2.8-2.8 4-1.7 1.7-2.9 3.9-3.5 6.1-0.6 2-0.7 4.1-0.6 6.2 0.1 2.9 0.6 5.7 0.5 8.6 0 1.2 0.1 2.4 0.3 3.5 0.5 3.2 1.3 6.4 2.7 9.3 0.8 1.7 1.3 3.5 1.8 5.2 0.7 2.5 1.6 4.8 3.3 6.8 0.8 0.9 1.3 2 1.7 3.1 1.6 4.1 4.1 7.3 8 9.5 0.6 0.3 1.2 0.9 1.4 1.6 1.4 3.4 2.8 6.9 4.6 10.2 0.1 0.2 0.1 0.4 0.1 0.6l-0.6-0.3c-2.3-2.4-5.1-4.2-8.2-5.5-2.4-1-4.7-2-7.1-3.1-2.5-1.2-5-2.6-7.5-3.7-2.8-1.2-5.7-1.5-8.7-1.1-1.9 0.3-3.8 0.8-5.6 0.8-3.8 0-7.4 0.6-11 1.5-4.9 1.2-9.8 2.8-14.2 5.4-0.7 0.4-1.3 0.9-2 1.4-0.2 0.2-0.2 0.5-0.3 0.8 0.3 0.1 0.6 0.3 0.8 0.2 0.8-0.3 1 0.7 1.7 0.6 0 1.3 1.2 1.2 2 1.5 3.9 1.5 7.7 3 11.6 4.3 0.1 0 0.2 0.1 0.4 0.1h6c-1.1-0.4-2.2-0.7-3.3-1.1-4.4-1.4-8.7-2.9-13.1-4.4-0.7-0.2-1.5-0.4-2.2-0.6-0.1 0-0.3-0.1-0.4-0.1 0.1-0.1 0.2-0.3 0.4-0.3 1.3-0.2 2.6-0.5 3.9-0.6 1.7-0.1 3.4 0 5.1 0v0.1c2.4-0.1 4.8-0.2 7.1-0.3 2.8-0.1 5.2 0.9 7.7 1.9 2.5 1.1 5 1.7 7.6 2.1 1.1 0.2 2.1 0.6 3.2 0.8 3.2 0.6 6.5 1.1 9.7 1.8 0.9 0.2 1.9 0.4 2.8 0.7h4.4c-0.5-0.2-0.9-0.3-1.4-0.5-3.4-1.3-6.9-1.8-10.4-2.5-4-0.8-8-1.4-11.9-2.4-1.9-0.4-3.7-1.4-5.6-2.1-2.5-1-5.1-1.3-7.8-1-2.4 0.3-4.9 0.1-7.4 0.1-1.3 0-2.6 0.2-3.9 0.2-0.4 0-0.9-0.1-1.3-0.1 0.3-0.2 0.7-0.5 1.1-0.6 1.6-0.6 3.3-1 4.9-1.6 3.3-1.2 6.6-1.9 10-2.5 1.2-0.2 2.5-0.4 3.8-0.4 2.9-0.1 5.8-0.4 8.7-1.1 2.3-0.5 4.6-0.2 6.7 0.7 5.8 2.6 11.6 5.3 17.4 8 2.3 1 4 2.8 6 4.3 0.3 0.3 0.6 0.7 1 0.8 0.6 0.2 1.1 0.5 1.6 0.8h2.8v-0.1c-0.4-0.5-0.9-1-1.3-1.5-1.8-2.1-2.8-4.6-4-7-0.6-1.1-1-2.2-1.5-3.3-0.1-0.1 0-0.3-0.1-0.5 0.6 0 1.2 0 1.7 0.2 0.3 0.1 0.5 0.4 0.7 0.7 0.9 1.8 1.6 3.7 2.6 5.5 1.1 2 2.2 4 3.4 6h1.8c-1-1.9-2.1-3.8-3.1-5.7l-0.3-0.6c-1.2-4.1-3.8-7.4-5.8-11.1-1.4-2.5-2.4-5.1-3.7-7.6-1.1-2.2-2.4-4.3-3.6-6.6-0.8-1.5-1.4-3-2-4.5-0.7-1.7-1.4-3.4-2-5.2-0.3-0.7-0.4-1.5-0.5-2.2-0.2-3.9 0.7-7.7 1.2-11.5 0.4-3 1.3-5.7 2.3-8.5 0.7-1.9 2-3.3 3.8-4.1 1.2-0.6 2.4-1 3.6-1.5 0.8-0.3 1.7-0.6 2.5-1 1.1-0.6 2.2-0.6 3.3-0.3 0.8 0.2 1.3 0.2 1.8-0.6 0.8-1.1 2.3-1.5 3.7-1 1.3 0.6 2.7 1.3 3.2 2.7 0.6 1.7 2 2 3.5 2.3h0.5c2.4-0.5 4.1 0.8 5.6 2.5 1.4 1.5 2.8 2.9 4.2 4.2 2.2 2.1 4.5 4 6.6 6.2 1.5 1.6 2.7 3.4 3.8 5.2 1.4 2.4 2.7 4.9 3.7 7.5s1.6 5.4 2.3 8.1c0.3 0.9 0.5 1.9 0.7 2.8 0.1 0.3 0.1 0.6 0 0.8-1.1 3.3-2.2 6.6-3.3 10-0.2 0.6-0.4 1.3-0.6 1.9-0.2 0.8 0.1 1.1 0.9 1 0.7-2.3 1.5-4.6 2.2-6.9 0.5-1.5 0.9-3 1.5-4.4 1-2.4 2.1-4.8 3.1-7.2 0.5-1.2 1.1-2.5 1.6-3.7 1.3-3.3 2.6-6.7 3.8-10.1 1.1-3.1 1.9-6.2 1.9-9.5 0-3.2 0.7-6.4 1.5-9.5 0.7-2.8 0.8-5.7 0.9-8.6 0.1-1.6 0-3.2 0.1-4.8 0-0.2 0.1-0.4 0.2-0.7 0.2 0.1 0.5 0.2 0.6 0.4 0.2 0.2 0.4 0.5 0.5 0.8 1.3 3 2.5 6 3.8 9 0.4 0.9 0.7 1.9 1 2.8 1.5 4.1 2.5 8.2 2.3 12.6-0.1 2.9 0.1 5.8-0.5 8.8-0.5 2.5-1.5 4.8-2.5 7.2-1 2.2-1.8 4.4-2.7 6.5-0.1 0.3-0.3 0.7-0.1 0.8 0.6 1-0.1 1.3-0.7 1.8l-7.2 5.1c-0.1 0.1-0.3 0.2-0.4 0.3-1.5 2.1-3.9 3.3-5.7 5-1.4 1.3-2.9 2.6-4.3 3.9-0.2 0.2-0.5 0.3-0.8 0.4-0.2 0.3-0.4 0.6-0.7 0.8-2.2 1.8-4.3 3.7-6.5 5.5-1.8 1.4-2.8 3.3-3.2 5.5-0.2 1-0.5 1.9-1.2 2.7-0.3 0.4-0.6 0.9-0.8 1.4l-0.3 0.6h1.9c0.3-0.6 0.6-1.1 0.9-1.6 0.4-0.8 0.7-1.5 0.9-2.3 0.4-1.4 0.5-2.9 1.6-3.9 2-1.9 3.9-3.9 6.1-5.6 2.5-1.9 4.8-3.8 7.1-6 2.2-2.1 4.6-4 6.9-6 0 0 0.1 0 0.1-0.1l6.9-4.8c1.2-0.8 2.3-1.7 3.6-2.4 2.6-1.4 5.3-2.8 8-4 2.6-1.2 5.4-1.6 8.3-1.5 0.6 0 0.9 0.1 0.6 0.8-0.3 0.6-0.5 1.2-0.6 1.8-0.4 2.1-0.8 4.1-1.2 6.2-0.7 3.3-1.6 6.7-2.4 10-0.6 2.5-1.4 4.9-3.4 6.5-2.7 2.2-5.6 4.2-8.5 6.2-3.3 2.2-6.8 4.2-10 6.5-0.1 0.1-0.3 0.2-0.4 0.3h3c0.2-0.1 0.4-0.2 0.6-0.4 4.4-2.4 9.5-5.4 14.2-9zm-40.9-61.5c0.7-0.2 1.5-0.3 2.1-0.4 0.7 0.3 1.5-0.3 1.9 0.6 0.2 0.5 0.3 0.8-0.3 1-0.5 0.1-0.9 0.4-1.4 0.6-1.1 0.5-2.5-0.2-2.6-1.4-0.1 0 0.1-0.3 0.3-0.4zm-4-5.5c0.1 0.1 0.1 0.3 0.2 0.4 0.7 1.8 1.4 3.7 2.1 5.5 0.1 0.4 0.3 0.7 0.5 1 0.3 0.5 1 1.1 0.8 1.6-0.1 0.5-0.9 0.8-1.4 1.2-0.9 0.7-1.7 1.4-2.6 2.1-0.5 0.5-0.7 0.3-0.7-0.4v-2.7c-0.5-2.9 0.4-5.6 0.8-8.4 0 0 0.2-0.1 0.3-0.3zm-12.7 7.8c-0.1 0.2-0.1 0.3-0.1 0.5-0.1-0.1-0.3-0.1-0.4-0.2-0.2-0.2-0.4-0.5-0.5-0.7-1.7-2.7-4.1-3.7-7.2-3.3-0.6 0.1-1.1 0.5-1.6 0.9-0.4 0.3-0.8 0.5-1.4 0.4-1.5-0.3-3-0.2-4.4 0.7-1 0.6-2.1 1-3.2 1.4-3.8 1.4-6.2 4-7.2 7.9-0.7 2.5-1.5 5-1.9 7.6-0.6 3.9-1.7 7.8-0.9 11.7 0.2 1.3 0.9 2.5 1.3 3.8 0.6 1.7 1.1 3.4 1.7 5 0.4 1 0.8 2 1.3 3 1 2 2.3 3.9 3.2 5.9 1.2 2.5 2.3 5 3.4 7.5 0.1 0.2 0.1 0.5 0.2 0.8-0.3-0.1-0.5-0.2-0.8-0.3-1.9-0.7-3.2-2.3-4.8-3.5-0.4-0.4-0.7-1-1-1.5-1.1-2.1-2.3-4.2-3.4-6.2-0.3-0.6-0.8-1.1-1.2-1.6-0.9-1.1-1.6-2.3-2-3.7-0.8-3-2-5.8-3.3-8.6-2-4.1-2.8-8.5-2.4-13.1-0.2-1.8-0.5-3.5-0.6-5.3 0-1.7 0.2-3.4 0.4-5 0.4-3.1 2-5.6 3.9-8 0.6-0.8 1.2-1.7 1.7-2.5 1.3-2 2.6-4.1 4-6 0.7-1 1.5-1.9 2.3-2.8 0.2-0.2 0.7-0.3 1-0.2 0.8 0.3 1.5 0.7 2.3 1.1 1.6 1 3.4 1.4 5.2 1.8 1.8 0.5 3.6 1.3 5.4 1.9 1.9 0.6 3.6 1.5 5.1 2.8 0.4 0.3 0.8 0.5 1.1 0.9 1.6 1.9 3.7 2.9 6.1 3.3 0.4 0.1 0.5 0.2 0.3 0.6-0.3 0.6-0.7 1.2-1 1.7-0.3 0.4-0.5 0.8-0.6 1.3zm10.3 0.9c0.1 1.4-0.1 2.7-0.1 4.1 0 0.2-0.1 0.3-0.1 0.5-0.2-0.1-0.4-0.1-0.5-0.3-1.1-1-2.1-1.9-3.2-2.9s-2.3-1.4-3.7-1.3h-0.8c-0.3 0-0.7-0.1-1-0.2 0.2-0.3 0.3-0.5 0.5-0.8 0.4-0.6 0.9-1.2 1.2-1.8 1-2.4 2.8-4 4.8-5.4 1-0.6 1.9-1.3 2.9-1.9 0.4-0.3 0.9-0.4 1.4-0.5 0.1 0 0.3 0.1 0.6 0.3-1.1 0.5-0.9 1.3-1.1 2.1-0.5 2.8-1 5.4-0.9 8.1zm25.4 20c-1.1 3.5-2.2 7-3.4 10.4-0.6 1.7-1.4 3.3-2.1 4.9-0.1 0.1-0.2 0.3-0.3 0.4-0.1-0.2-0.2-0.3-0.3-0.5-0.6-2.1-1-4.3-1.7-6.3-0.7-2.1-1.6-4.2-2.6-6.2-1.1-2.2-2.3-4.4-3.7-6.5-1.7-2.6-4-4.7-6.3-6.8-1.2-1-2.3-2.1-3.5-3.2-0.5-0.4-0.5-0.7 0-1.1 0.8-0.7 1.6-1.4 2.5-2 1.5-1 2.9-2 4.5-2.9s3.2-1.7 4.9-2.4c0.8-0.3 1.7-0.4 2.5-0.6 1.6 0 2.7 0.6 3.5 1.9 1.3 2.2 2.6 4.4 3.2 6.9 0.5 2.2 1.1 4.3 1.6 6.5 0.2 0.9 0.1 1.9 0.3 2.8 0.2 1.2 0.6 2.4 0.9 3.7 0.1 0.4 0.1 0.8 0 1zm4.7-26.3c-0.3 3-0.9 6-1.5 9-0.5 2.3-0.6 4.5-0.5 6.8 0.1 2.1-0.6 4-1.1 6 0 0.1-0.2 0.2-0.3 0.4-0.1-0.1-0.1-0.3-0.2-0.4-0.1-0.8-0.2-1.6-0.4-2.4-0.3-1.2-0.7-2.4-1.1-3.6-0.7-2-0.8-4.2-1.7-6.2-1-2.1-2.1-4-3.6-5.8-0.8-1-2.1-1.1-3.3-1.1s-2.3 0.4-3.5 0.5c-0.3 0-0.6 0-0.8 0.1 0.1-0.3 0.1-0.6 0.3-0.8 1.2-2.2 3.1-3.5 5.1-4.9 2.3-1.6 4.6-3.3 6.9-5 0.9-0.7 1.9-1.2 3.1-1.2 0.7 0 1.4-0.4 2.1-0.7 0.3-0.1 0.5-0.3 0.8-0.4 0.1 0.3 0.1 0.6 0.2 0.9h-0.2c-0.2 2.9 0 5.9-0.3 8.8z"/>
		<path d="m372.3 483.4s-0.1 0 0 0c-0.1 0-0.1 0 0 0-0.1 0.1-0.1 0.1 0 0z"/>
	<g fill="#fff">
		<path d="m457.3 320c-2.6 0.4-5.1 1-7.4 2.2-2.3 1.3-4.7 2.4-7.1 3.6-0.2 0.1-0.4 0.1-0.6 0.1 0-0.2 0-0.4 0.1-0.6 0.4-1 0.8-1.9 1.2-2.9 0.8-1.9 1.7-3.8 2.5-5.7 1.2-2.9 1.7-6 1.6-9.2-0.1-2.5-0.1-5-0.2-7.5-0.1-3.3-0.9-6.4-2.1-9.5-0.4-1.1-0.8-2.2-1.3-3.3-1.2-3-2.5-6-3.8-9-0.3-0.6-0.8-1.2-1.3-1.7-0.8-0.6-1.5-1.2-1.8-2.2-0.4-1-1.4-1.2-2.3-0.6-0.7 0.4-1.5 1-2.3 1-1.5 0-2.6 0.7-3.7 1.4-1.9 1.3-3.7 2.6-5.5 3.8-2.5 1.6-5.1 3.1-6.8 5.7-0.1 0.2-0.6 0.4-0.7 0.3-1.4-0.6-2.5 0.1-3.6 0.6-1.4 0.6-1.7 0.5-2.1-0.9-0.1-0.2 0-0.3-0.1-0.5-0.6-1.7-1.2-3.3-1.8-5-0.5-1.2-0.9-1.3-2.1-0.8-3 1.2-5.7 2.9-7.8 5.3-0.7 0.8-1.1 1.2-2 0.4-0.1-0.1-0.4-0.1-0.6-0.2-1.6-0.7-3.3-1.4-4.4-2.9-0.4-0.5-0.9-0.9-1.4-1.3-1.7-1.5-3.8-2.4-5.9-3.2-1.4-0.5-2.7-1.2-4.2-1.5-2.1-0.5-4.2-1-6.2-1.9l-2.1-0.9c-0.7-0.2-1.4-0.3-1.9 0.4-1.7 2.2-3.4 4.4-5.2 6.6-0.4 0.5-0.8 0.9-1 1.4-0.7 1.6-1.7 2.8-2.8 4-1.7 1.7-2.9 3.9-3.5 6.1-0.6 2-0.7 4.1-0.6 6.2 0.1 2.9 0.6 5.7 0.5 8.6 0 1.2 0.1 2.4 0.3 3.5 0.5 3.2 1.3 6.4 2.7 9.3 0.8 1.7 1.3 3.5 1.8 5.2 0.7 2.5 1.6 4.8 3.3 6.8 0.8 0.9 1.3 2 1.7 3.1 1.6 4.1 4.1 7.3 8 9.5 0.6 0.3 1.2 0.9 1.4 1.6 1.4 3.4 2.8 6.9 4.6 10.2 0.1 0.2 0.1 0.4 0.1 0.6l-0.6-0.3c-2.3-2.4-5.1-4.2-8.2-5.5-2.4-1-4.7-2-7.1-3.1-2.5-1.2-5-2.6-7.5-3.7-2.8-1.2-5.7-1.5-8.7-1.1-1.9 0.3-3.8 0.8-5.6 0.8-3.8 0-7.4 0.6-11 1.5-4.9 1.2-9.8 2.8-14.2 5.4-0.7 0.4-1.3 0.9-2 1.4-0.2 0.2-0.2 0.5-0.3 0.8 0.3 0.1 0.6 0.3 0.8 0.2 0.8-0.3 1 0.7 1.7 0.6 0 1.3 1.2 1.2 2 1.5 3.9 1.5 7.7 3 11.6 4.3 3.6 1.2 7.3 2.1 10.9 3.2 2.8 0.9 5.5 2.1 8.5 2.5 2.2 0.3 4.4 0.9 6.6 1.3 3.8 0.7 7.6 1.4 11.4 2 3.7 0.6 7.4 1.1 11.1 1.6 2.4 0.3 4.9 0.5 7.3 0.8 1.2 0.1 2.4 0.4 3.6 0.5 0.6 0 1.4-0.2 1.2-1-0.2-1.2 0.3-0.6 0.7-0.4 1.2 0.7 2.4 1.6 3.9 1.8 0.3 0 0.6 0.5 0.7 0.8 0.8 1.4 1.6 2.8 2.3 4.2 0.3 0.7 0.5 1.4 0.8 2.1s0.5 1.5 0.8 2.2h0.8c0.1-0.4 0.3-0.8 0.3-1.2-0.2-1.6-0.6-3.2-1.6-4.5-0.7-0.9-1.3-1.8-2-2.6-0.6-0.8-0.6-0.9 0.3-1 1.2-0.2 2.4-0.2 3.7-0.4 0.9-0.1 1.4-0.6 1.1-1.2-0.3-0.7 0-1.2 0.3-1.7s0.6-1 1-1.5c1.8-2.1 3.3-4.4 4.3-7 0.3-0.7 0.8-1.3 1.1-2 0.4-0.8 0.7-1.5 0.9-2.3 0.4-1.4 0.5-2.9 1.6-3.9 2-1.9 3.9-3.9 6.1-5.6 2.5-1.9 4.8-3.8 7.1-6 2.2-2.1 4.6-4 6.9-6 0 0 0.1 0 0.1-0.1l6.9-4.8c1.2-0.8 2.3-1.7 3.6-2.4 2.6-1.4 5.3-2.8 8-4 2.6-1.2 5.4-1.6 8.3-1.5 0.6 0 0.9 0.1 0.6 0.8-0.3 0.6-0.5 1.2-0.6 1.8-0.4 2.1-0.8 4.1-1.2 6.2-0.7 3.3-1.6 6.7-2.4 10-0.6 2.5-1.4 4.9-3.4 6.5-2.7 2.2-5.6 4.2-8.5 6.2-3.3 2.2-6.8 4.2-10 6.5-3.6 2.5-7.2 4.8-11.5 6.1-5.7 1.8-11.4 3.4-17.5 3.4-0.5 0-1.2 0-1.2 0.7-0.1 0.7 0.5 0.9 1.1 0.9 2.4-0.1 4.8-0.1 7.2-0.5 4.7-0.7 9.1-2.5 13.6-3.9 2.3-0.7 4.3-1.9 6.3-3.3 1.7-1.2 3.3-2.3 5-3.4 4.9-3.2 10-6.2 14.7-9.8 2.8-2.1 4.8-4.7 5.6-8.2l1.8-7.8c0.5-2.4 0.8-4.7 1.4-7.1 0.4-1.8 1-3.5 1.5-5.3v-1.3c-0.6-0.1-1.2-0.2-1.9-0.2-1.3 0.6-2.5 0.6-3.7 0.8zm-39.6-32.6c1.2-2.2 3.1-3.5 5.1-4.9 2.3-1.6 4.6-3.3 6.9-5 0.9-0.7 1.9-1.2 3.1-1.2 0.7 0 1.4-0.4 2.1-0.7 0.3-0.1 0.5-0.3 0.8-0.4 0.1 0.3 0.1 0.6 0.2 0.9h-0.2c0 3 0.1 6-0.2 8.9-0.3 3-0.9 6-1.5 9-0.5 2.3-0.6 4.5-0.5 6.8 0.1 2.1-0.6 4-1.1 6 0 0.1-0.2 0.2-0.3 0.4-0.1-0.1-0.1-0.3-0.2-0.4-0.1-0.8-0.2-1.6-0.4-2.4-0.3-1.2-0.7-2.4-1.1-3.6-0.7-2-0.8-4.2-1.7-6.2-1-2.1-2.1-4-3.6-5.8-0.8-1-2.1-1.1-3.3-1.1s-2.3 0.4-3.5 0.5c-0.3 0-0.6 0-0.8 0.1 0-0.3 0.1-0.6 0.2-0.9zm1 1.9c0.8-0.3 1.7-0.4 2.5-0.6 1.6 0 2.7 0.6 3.5 1.9 1.3 2.2 2.6 4.4 3.2 6.9 0.5 2.2 1.1 4.3 1.6 6.5 0.2 0.9 0.1 1.9 0.3 2.8 0.2 1.2 0.6 2.4 0.9 3.7 0.1 0.3 0.1 0.7 0 1-1.1 3.5-2.2 7-3.4 10.4-0.6 1.7-1.4 3.3-2.1 4.9-0.1 0.1-0.2 0.3-0.3 0.4-0.1-0.2-0.2-0.3-0.3-0.5-0.6-2.1-1-4.3-1.7-6.3-0.7-2.1-1.6-4.2-2.6-6.2-1.1-2.2-2.3-4.4-3.7-6.5-1.7-2.6-4-4.7-6.3-6.8-1.2-1-2.3-2.1-3.5-3.2-0.5-0.4-0.5-0.7 0-1.1 0.8-0.7 1.6-1.4 2.5-2 1.5-1 2.9-2 4.5-2.9s3.2-1.7 4.9-2.4zm-7-1.2c0.7-0.2 1.5-0.3 2.1-0.4 0.7 0.3 1.5-0.3 1.9 0.6 0.2 0.5 0.3 0.8-0.3 1-0.5 0.1-0.9 0.4-1.4 0.6-1.1 0.5-2.5-0.2-2.6-1.4-0.1 0 0.1-0.3 0.3-0.4zm-4-5.5c0.1 0.1 0.1 0.3 0.2 0.4 0.7 1.8 1.4 3.7 2.1 5.5 0.1 0.4 0.3 0.7 0.5 1 0.3 0.5 1 1.1 0.8 1.6-0.1 0.5-0.9 0.8-1.4 1.2-0.9 0.7-1.7 1.4-2.6 2.1-0.5 0.5-0.7 0.3-0.7-0.4v-2.7c-0.5-2.9 0.4-5.6 0.8-8.4 0.1 0 0.2-0.1 0.3-0.3zm-10.1 6.1c1-2.4 2.8-4 4.8-5.4 1-0.6 1.9-1.3 2.9-1.9 0.4-0.3 0.9-0.4 1.4-0.5 0.1 0 0.3 0.1 0.6 0.3-1.1 0.5-0.9 1.3-1.1 2.1-0.5 2.6-1.1 5.3-1 8 0.1 1.4-0.1 2.7-0.1 4.1 0 0.2-0.1 0.3-0.1 0.5-0.2-0.1-0.4-0.1-0.5-0.3-1.1-1-2.1-1.9-3.2-2.9s-2.3-1.4-3.7-1.3h-0.8c-0.3 0-0.7-0.1-1-0.2 0.2-0.3 0.3-0.5 0.5-0.8 0.5-0.5 1-1.1 1.3-1.7zm-21.2 54.3c-1.9-0.7-3.2-2.3-4.8-3.5-0.4-0.4-0.7-1-1-1.5-1.1-2.1-2.3-4.2-3.4-6.2-0.3-0.6-0.8-1.1-1.2-1.6-0.9-1.1-1.6-2.3-2-3.7-0.8-3-2-5.8-3.3-8.6-2-4.1-2.8-8.5-2.4-13.1-0.2-1.8-0.5-3.5-0.6-5.3 0-1.7 0.2-3.4 0.4-5 0.4-3.1 2-5.6 3.9-8 0.6-0.8 1.2-1.7 1.7-2.5 1.3-2 2.6-4.1 4-6 0.7-1 1.5-1.9 2.3-2.8 0.2-0.2 0.7-0.3 1-0.2 0.8 0.3 1.5 0.7 2.3 1.1 1.6 1 3.4 1.4 5.2 1.8 1.8 0.5 3.6 1.3 5.4 1.9 1.9 0.6 3.6 1.5 5.1 2.8 0.4 0.3 0.8 0.5 1.1 0.9 1.6 1.9 3.7 2.9 6.1 3.3 0.4 0.1 0.5 0.2 0.3 0.6-0.3 0.6-0.7 1.2-1 1.7-0.2 0.4-0.4 0.8-0.5 1.3-0.1 0.2-0.1 0.3-0.1 0.5-0.1-0.1-0.3-0.1-0.4-0.2-0.2-0.2-0.4-0.5-0.5-0.7-1.7-2.7-4.1-3.7-7.2-3.3-0.6 0.1-1.1 0.5-1.6 0.9-0.4 0.3-0.8 0.5-1.4 0.4-1.5-0.3-3-0.2-4.4 0.7-1 0.6-2.1 1-3.2 1.4-3.8 1.4-6.2 4-7.2 7.9-0.7 2.5-1.5 5-1.9 7.6-0.6 3.9-1.7 7.8-0.9 11.7 0.2 1.3 0.9 2.5 1.3 3.8 0.6 1.7 1.1 3.4 1.7 5 0.4 1 0.8 2 1.3 3 1 2 2.3 3.9 3.2 5.9 1.2 2.5 2.3 5 3.4 7.5 0.1 0.2 0.1 0.5 0.2 0.8-0.4-0.1-0.6-0.2-0.9-0.3zm11.6 26.2c-2.9-0.8-5.9-0.6-8.8-1-4.4-0.6-8.7-1.4-13-2.1l-6-0.9c-2.5-0.4-5-0.9-7.5-1.4-1.9-0.4-3.9-0.7-5.8-1.3-4-1.2-8-2.5-12-3.8-4.4-1.4-8.7-2.9-13.1-4.4-0.7-0.2-1.5-0.4-2.2-0.6-0.1 0-0.3-0.1-0.4-0.1 0.1-0.1 0.2-0.3 0.4-0.3 1.3-0.2 2.6-0.5 3.9-0.6 1.7-0.1 3.4 0 5.1 0v0.1c2.4-0.1 4.8-0.2 7.1-0.3 2.8-0.1 5.2 0.9 7.7 1.9 2.5 1.1 5 1.7 7.6 2.1 1.1 0.2 2.1 0.6 3.2 0.8 3.2 0.6 6.5 1.1 9.7 1.8 1.7 0.3 3.3 0.8 4.9 1.5 3.4 1.6 7 2.9 10.7 3.8 1.2 0.3 2.4 0.8 3.6 1.3 0.8 0.3 1.5 0.9 2.3 1.4 0.9 0.6 1.8 1.2 2.7 1.9 0.1 0.1 0.2 0.2 0.2 0.3 0-0.1-0.2 0-0.3-0.1zm0.2-2.7c-0.5-0.3-0.9-0.7-1.5-1-1.2-0.7-2.4-1.4-3.7-1.9-4.4-1.5-9-2.7-13.3-4.4-3.4-1.3-6.9-1.8-10.4-2.5-4-0.8-8-1.4-11.9-2.4-1.9-0.4-3.7-1.4-5.6-2.1-2.5-1-5.1-1.3-7.8-1-2.4 0.3-4.9 0.1-7.4 0.1-1.3 0-2.6 0.2-3.9 0.2-0.4 0-0.9-0.1-1.3-0.1 0.3-0.2 0.7-0.5 1.1-0.6 1.6-0.6 3.3-1 4.9-1.6 3.3-1.2 6.6-1.9 10-2.5 1.2-0.2 2.5-0.4 3.8-0.4 2.9-0.1 5.8-0.4 8.7-1.1 2.3-0.5 4.6-0.2 6.7 0.7 5.8 2.6 11.6 5.3 17.4 8 2.3 1 4 2.8 6 4.3 0.3 0.3 0.6 0.7 1 0.8 2.7 1 4.2 3.3 5.9 5.4 0.5 0.7 1 1.4 1.5 2 0 0.1 0.1 0.2 0.1 0.2-0.1 0-0.2 0-0.3-0.1zm0.2-3c-0.1 0-0.2-0.1-0.2-0.1l-3-3.6c-0.4-0.5-0.9-1-1.3-1.5-1.8-2.1-2.8-4.6-4-7-0.6-1.1-1-2.2-1.5-3.3-0.1-0.1 0-0.3-0.1-0.5 0.6 0 1.2 0 1.7 0.2 0.3 0.1 0.5 0.4 0.7 0.7 0.9 1.8 1.6 3.7 2.6 5.5 1.6 2.9 3.3 5.8 4.9 8.7 0.1 0.3 0.3 0.5 0.4 0.7-0.2 0-0.2 0.1-0.2 0.2zm51.5-36.8c0.6 1-0.1 1.3-0.7 1.8l-7.2 5.1c-0.1 0.1-0.3 0.2-0.4 0.3-1.5 2.1-3.9 3.3-5.7 5-1.4 1.3-2.9 2.6-4.3 3.9-0.2 0.2-0.5 0.3-0.8 0.4-0.2 0.3-0.4 0.6-0.7 0.8-2.2 1.8-4.3 3.7-6.5 5.5-1.8 1.4-2.8 3.3-3.2 5.5-0.2 1-0.5 1.9-1.2 2.7-0.3 0.4-0.6 0.9-0.8 1.4-0.8 2.1-2.2 3.8-3.4 5.7-0.8 1.3-1.5 2.7-2.3 4.1-0.2 0.3-0.5 0.8-0.8 0.8-2.8 0.5-5.5 0.5-7.9-1.2-0.6-0.4-1.2-1-1.6-1.6-2.4-4.3-4.7-8.6-7.1-12.9l-0.3-0.6c-1.2-4.1-3.8-7.4-5.8-11.1-1.4-2.5-2.4-5.1-3.7-7.6-1.1-2.2-2.4-4.3-3.6-6.6-0.8-1.5-1.4-3-2-4.5-0.7-1.7-1.4-3.4-2-5.2-0.3-0.7-0.4-1.5-0.5-2.2-0.2-3.9 0.7-7.7 1.2-11.5 0.4-3 1.3-5.7 2.3-8.5 0.7-1.9 2-3.3 3.8-4.1 1.2-0.6 2.4-1 3.6-1.5 0.8-0.3 1.7-0.6 2.5-1 1.1-0.6 2.2-0.6 3.3-0.3 0.8 0.2 1.3 0.2 1.8-0.6 0.8-1.1 2.3-1.5 3.7-1 1.3 0.6 2.7 1.3 3.2 2.7 0.6 1.7 2 2 3.5 2.3h0.5c2.4-0.5 4.1 0.8 5.6 2.5 1.4 1.5 2.8 2.9 4.2 4.2 2.2 2.1 4.5 4 6.6 6.2 1.5 1.6 2.7 3.4 3.8 5.2 1.4 2.4 2.7 4.9 3.7 7.5s1.6 5.4 2.3 8.1c0.3 0.9 0.5 1.9 0.7 2.8 0.1 0.3 0.1 0.6 0 0.8-1.1 3.3-2.2 6.6-3.3 10-0.2 0.6-0.4 1.3-0.6 1.9-0.2 0.8 0.1 1.1 0.9 1 0.7-2.3 1.5-4.6 2.2-6.9 0.5-1.5 0.9-3 1.5-4.4 1-2.4 2.1-4.8 3.1-7.2 0.5-1.2 1.1-2.5 1.6-3.7 1.3-3.3 2.6-6.7 3.8-10.1 1.1-3.1 1.9-6.2 1.9-9.5 0-3.2 0.7-6.4 1.5-9.5 0.7-2.8 0.8-5.7 0.9-8.6 0.1-1.6 0-3.2 0.1-4.8 0-0.2 0.1-0.4 0.2-0.7 0.2 0.1 0.5 0.2 0.6 0.4 0.2 0.2 0.4 0.5 0.5 0.8 1.3 3 2.5 6 3.8 9 0.4 0.9 0.7 1.9 1 2.8 1.5 4.1 2.5 8.2 2.3 12.6-0.1 2.9 0.1 5.8-0.5 8.8-0.5 2.5-1.5 4.8-2.5 7.2-1 2.2-1.8 4.4-2.7 6.5-0.1 0.5-0.2 0.9-0.1 1.1z"/>
		<path d="m420.6 343.2c0.1 0 0.1 0 0 0 0.1 0 0.1 0 0 0 0.1 0 0.1 0 0 0 0.1 0 0 0 0 0z"/>
		<path d="m408.4 373.1c-0.1-0.4-0.5-1.2-0.7-1.1-0.7 0.1-0.5 0.8-0.6 1.3v0.1h-0.1c0.3 1.2 0.6 2.4 0.9 3.5 0.2 0.6 0.5 1.3 1.1 1.1 0.8-0.2 0.4-1.1 0.3-1.6-0.2-1.1-0.5-2.2-0.9-3.3z"/>
	</g>
</svg>